<svg id="Слой_1" xmlns="http://www.w3.org/2000/svg" xmlns:xlink="http://www.w3.org/1999/xlink" viewBox="0 0 2000 2000"><style>.st0{fill:#424554}.st1{fill:#00b3ca}.st6,.st7{clip-path:url(#SVGID_2_);fill:#fff}.st7{fill:#242121}</style><path class="st0" d="M377 1481.7c-6 3-17.9 6-33.2 6-35.5 0-62.2-22.4-62.2-63.7 0-39.4 26.7-66.1 65.7-66.1 15.7 0 25.6 3.4 29.9 5.6l-3.9 13.3c-6.2-3-14.9-5.2-25.4-5.2-29.5 0-49.1 18.9-49.1 51.9 0 30.8 17.7 50.6 48.4 50.6 9.9 0 20-2.1 26.5-5.2l3.3 12.8zM462.5 1426.8h-48.9v45.4h54.5v13.6h-70.8V1360h68v13.6h-51.7v39.8h48.9v13.4zM487 1466c7.3 4.5 17.9 8.2 29.1 8.2 16.6 0 26.3-8.8 26.3-21.5 0-11.8-6.7-18.5-23.7-25-20.5-7.3-33.2-17.9-33.2-35.7 0-19.6 16.2-34.2 40.7-34.2 12.9 0 22.2 3 27.8 6.2l-4.5 13.3c-4.1-2.2-12.5-6-23.9-6-17.2 0-23.7 10.3-23.7 18.9 0 11.8 7.7 17.6 25 24.3 21.3 8.2 32.1 18.5 32.1 37 0 19.4-14.4 36.2-44.1 36.2-12.1 0-25.4-3.5-32.1-8l4.2-13.7zM637.1 1360v125.9h-16.2V1360h16.2zM665.5 1485.8V1360h17.7l40.3 63.7c9.3 14.8 16.6 28 22.6 40.9l.4-.2c-1.5-16.8-1.9-32.1-1.9-51.7V1360h15.3v125.9h-16.4l-40-63.9c-8.8-14-17.2-28.4-23.5-42l-.6.2c.9 15.9 1.3 31 1.3 51.9v53.8h-15.2zM788.3 1485.8V1360H806l40.3 63.7c9.3 14.8 16.6 28 22.6 40.9l.4-.2c-1.5-16.8-1.9-32.1-1.9-51.7V1360h15.3v125.9h-16.4l-40-63.9c-8.8-14-17.2-28.4-23.5-42l-.6.2c.9 15.9 1.3 31 1.3 51.9v53.8h-15.2zM1018.7 1421.6c0 43.3-26.3 66.3-58.4 66.3-33.2 0-56.6-25.8-56.6-63.9 0-40 24.8-66.1 58.4-66.1 34.4 0 56.6 26.4 56.6 63.7zm-97.6 2c0 26.9 14.6 51 40.1 51 25.8 0 40.3-23.7 40.3-52.3 0-25-13.1-51.2-40.1-51.2-26.9.1-40.3 24.9-40.3 52.5zM1067.5 1485.8l-41.1-125.9h17.6l19.6 62c5.4 17 10.1 32.3 13.4 47.1h.4c3.5-14.6 8.8-30.4 14.4-46.9l21.3-62.2h17.4l-45 125.9h-18zM1164.4 1446.2l-13.1 39.6h-16.8l42.8-125.9h19.6l42.9 125.9h-17.4l-13.4-39.6h-44.6zm41.2-12.7l-12.3-36.2c-2.8-8.2-4.7-15.7-6.5-23h-.4c-1.9 7.5-3.9 15.1-6.3 22.8l-12.3 36.4h37.8zM1282.2 1373.8h-38.3V1360h93.2v13.8h-38.5v112h-16.4v-112zM1367.3 1360v125.9h-16.2V1360h16.2zM1503.2 1421.6c0 43.3-26.3 66.3-58.4 66.3-33.2 0-56.6-25.8-56.6-63.9 0-40 24.8-66.1 58.4-66.1 34.4 0 56.6 26.4 56.6 63.7zm-97.6 2c0 26.9 14.6 51 40.1 51 25.8 0 40.3-23.7 40.3-52.3 0-25-13.1-51.2-40.1-51.2-26.9.1-40.3 24.9-40.3 52.5zM1524.3 1485.8V1360h17.7l40.3 63.7c9.3 14.8 16.6 28 22.6 40.9l.4-.2c-1.5-16.8-1.9-32.1-1.9-51.7V1360h15.3v125.9h-16.4l-40-63.9c-8.8-14-17.2-28.4-23.5-42l-.6.2c.9 15.9 1.3 31 1.3 51.9v53.8h-15.2zM1645 1466c7.3 4.5 17.9 8.2 29.1 8.2 16.6 0 26.3-8.8 26.3-21.5 0-11.8-6.7-18.5-23.7-25-20.5-7.3-33.2-17.9-33.2-35.7 0-19.6 16.2-34.2 40.7-34.2 12.9 0 22.2 3 27.8 6.2l-4.5 13.3c-4.1-2.2-12.5-6-23.9-6-17.2 0-23.7 10.3-23.7 18.9 0 11.8 7.7 17.6 25 24.3 21.3 8.2 32.1 18.5 32.1 37 0 19.4-14.4 36.2-44.1 36.2-12.1 0-25.4-3.5-32.1-8l4.2-13.7z"/><g><path class="st0" d="M224.1 1670.3l-13.1 39.6h-16.8L237 1584h19.6l42.9 125.9h-17.4l-13.4-39.6h-44.6zm41.2-12.7l-12.3-36.2c-2.8-8.2-4.7-15.7-6.5-23h-.4c-1.9 7.5-3.9 15.1-6.3 22.8l-12.3 36.4h37.8zM338.5 1709.9L306.6 1584h17.2l14.9 63.7c3.7 15.7 7.1 31.4 9.3 43.5h.4c2.1-12.5 6-27.4 10.3-43.7l16.8-63.5h17l15.3 63.9c3.5 14.9 6.9 29.9 8.8 43.1h.4c2.6-13.8 6.2-27.8 10.1-43.5l16.6-63.5h16.6l-35.7 125.9h-17l-15.9-65.5c-3.9-16.1-6.5-28.4-8.2-41.1h-.4c-2.2 12.5-5 24.8-9.7 41.1l-17.9 65.5h-17zM496.3 1670.3l-13.1 39.6h-16.8l42.8-125.9h19.6l42.9 125.9h-17.4l-13.4-39.6h-44.6zm41.3-12.7l-12.3-36.2c-2.8-8.2-4.7-15.7-6.5-23h-.4c-1.9 7.5-3.9 15.1-6.3 22.8l-12.3 36.4h37.8zM590.2 1585.7c8.2-1.7 20-2.6 31.2-2.6 17.4 0 28.6 3.2 36.4 10.3 6.3 5.6 9.9 14.2 9.9 23.9 0 16.6-10.5 27.6-23.7 32.1v.6c9.7 3.4 15.5 12.3 18.5 25.4 4.1 17.6 7.1 29.7 9.7 34.5h-16.8c-2.1-3.5-4.9-14.4-8.4-30.1-3.7-17.4-10.5-23.9-25.2-24.5h-15.3v54.5h-16.2v-124.1zm16.3 57.3h16.6c17.4 0 28.4-9.5 28.4-23.9 0-16.2-11.8-23.3-28.9-23.5-7.8 0-13.4.7-16.1 1.5v45.9zM690.7 1585.7c9.9-1.5 21.7-2.6 34.5-2.6 23.3 0 40 5.4 51 15.7 11.2 10.3 17.7 24.8 17.7 45.2 0 20.5-6.3 37.3-18.1 48.9-11.8 11.8-31.2 18.1-55.6 18.1-11.6 0-21.3-.6-29.5-1.5v-123.8zm16.2 111.3c4.1.7 10.1.9 16.4.9 34.7 0 53.6-19.4 53.6-53.4.2-29.7-16.6-48.5-51-48.5-8.4 0-14.8.7-19 1.7v99.3zM812.8 1690.1c7.3 4.5 17.9 8.2 29.1 8.2 16.6 0 26.3-8.8 26.3-21.5 0-11.8-6.7-18.5-23.7-25-20.5-7.3-33.2-17.9-33.2-35.7 0-19.6 16.2-34.2 40.7-34.2 12.9 0 22.2 3 27.8 6.2l-4.5 13.3c-4.1-2.2-12.5-6-23.9-6-17.2 0-23.7 10.3-23.7 18.9 0 11.8 7.7 17.6 25 24.3 21.3 8.2 32.1 18.5 32.1 37 0 19.4-14.4 36.2-44.1 36.2-12.1 0-25.4-3.5-32.1-8l4.2-13.7zM962.9 1584v52.7h60.9V1584h16.4v125.9h-16.4v-59h-60.9v59h-16.2V1584h16.2zM1175.9 1645.7c0 43.3-26.3 66.3-58.4 66.3-33.2 0-56.6-25.8-56.6-63.9 0-40 24.8-66.1 58.4-66.1 34.4 0 56.6 26.3 56.6 63.7zm-97.6 2c0 26.9 14.6 51 40.1 51 25.8 0 40.3-23.7 40.3-52.3 0-25-13.1-51.2-40.1-51.2-26.9 0-40.3 24.9-40.3 52.5zM1197 1709.9V1584h17.7l40.3 63.7c9.3 14.8 16.6 28 22.6 40.9l.4-.2c-1.5-16.8-1.9-32.1-1.9-51.7V1584h15.3v125.9H1275l-40-63.9c-8.8-14-17.2-28.4-23.5-42l-.6.2c.9 15.9 1.3 31 1.3 51.9v53.8H1197zM1427.4 1645.7c0 43.3-26.3 66.3-58.4 66.3-33.2 0-56.6-25.8-56.6-63.9 0-40 24.8-66.1 58.4-66.1 34.4 0 56.6 26.3 56.6 63.7zm-97.6 2c0 26.9 14.6 51 40.1 51 25.8 0 40.3-23.7 40.3-52.3 0-25-13.1-51.2-40.1-51.2-26.9 0-40.3 24.9-40.3 52.5zM1448.5 1585.7c8.2-1.7 20-2.6 31.2-2.6 17.4 0 28.6 3.2 36.4 10.3 6.3 5.6 9.9 14.2 9.9 23.9 0 16.6-10.5 27.6-23.7 32.1v.6c9.7 3.4 15.5 12.3 18.5 25.4 4.1 17.6 7.1 29.7 9.7 34.5h-16.8c-2.1-3.5-4.9-14.4-8.4-30.1-3.7-17.4-10.5-23.9-25.2-24.5h-15.3v54.5h-16.2v-124.1zm16.3 57.3h16.6c17.4 0 28.4-9.5 28.4-23.9 0-16.2-11.8-23.3-28.9-23.5-7.8 0-13.4.7-16.1 1.5v45.9zM1614.2 1650.9h-48.9v45.4h54.5v13.6H1549V1584h68v13.6h-51.7v39.8h48.9v13.5zM1706 1650.9h-48.9v45.4h54.5v13.6h-70.8V1584h68v13.6h-51.7v39.8h48.9v13.5zM1730.5 1690.1c7.3 4.5 17.9 8.2 29.1 8.2 16.6 0 26.3-8.8 26.3-21.5 0-11.8-6.7-18.5-23.7-25-20.5-7.3-33.2-17.9-33.2-35.7 0-19.6 16.2-34.2 40.7-34.2 12.9 0 22.2 3 27.8 6.2l-4.5 13.3c-4.1-2.2-12.5-6-23.9-6-17.2 0-23.7 10.3-23.7 18.9 0 11.8 7.7 17.6 25 24.3 21.3 8.2 32.1 18.5 32.1 37 0 19.4-14.4 36.2-44.1 36.2-12.1 0-25.4-3.5-32.1-8l4.2-13.7z"/></g><path class="st1" d="M1092.3 354l-345.8-82.9 27.2 230.7 331-41.5zM1310.1 1057.2l279 36.5 7-97.7-298.7-57.1z"/><path fill="#4379b2" d="M170.2 577.7l603.5-75.9 58.7 496.3 475.4 49.3 1.4 9.7-786.4 133.6z"/><path fill="#0b6689" d="M1240.8 444.2l-135 16.4-331.2 40.3 56.9 496.3 477.4 61-14.9-126.9z"/><path fill="#d4da26" d="M1088.7 323.3l3.6 30.7 532.5 162.4-28.7 479.7 129.2 25.1 36.4-777.8z"/><path fill="#6ea692" d="M1092.3 354l12.4 106.3 69.9 467 122.1 11.5 299.4 57.3 28.6-479.7z"/><g><defs><path id="SVGID_1_" d="M0 0h2000v2000H0z"/></defs><clipPath id="SVGID_2_"><use xlink:href="#SVGID_1_" overflow="visible"/></clipPath><path class="st6" d="M782 988.9c-35.6 7.6-73.8 13.6-110.8 13.6-157.7 0-267.4-69.7-267.4-215.8 0-147.9 102.1-230.7 267.4-230.7 32.1 0 74.6 5.4 110.1 17.3l-7 73.5c-36.9-18.6-70.4-23-105.3-23-100.3 0-163.2 68.1-163.2 156.6 0 88 61.5 154.2 165.3 154.2 38.4 0 83.8-7.4 106.6-18.1l4.3 72.4zM836.2 563.9h287.2v68H933.8v106.2h173.5v67.8H933.8v120.9h190.9v68H836.2zM1439.6 642.5c-30.7-11.6-65-18.5-98.9-18.5-33.3 0-76.4 13-76.4 60 0 74.9 213.1 43.3 213.1 188.1 0 94.5-84.6 130.3-182.6 130.3-52.9 0-76.7-6-125-16.5l9.1-78c33.6 16.2 72.1 26.8 110.4 26.8 36.8 0 86-16.9 86-55.8 0-82.3-213.1-48.3-213.1-191.2 0-96.5 84.7-131.7 170-131.7 41.7 0 80.9 5 116.6 15.4l-9.2 71.1zM1502.1 577.7v23.8h4V592h3.3c2.2 0 3.5.2 4.5.7 1.4.8 2 2.8 2 5.5v2l.2 1 .1.3h3.9l-.1-.5-.3-1.1v-3.5c0-1.1-.5-2.4-1.4-3.7-.7-1.2-2.1-2.1-4-2.4 1.5-.2 2.7-.6 3.4-1.1 1.5-.8 2.4-2.5 2.4-4.7 0-3-1.3-5-3.7-5.8-1.4-.7-3.6-.9-6.3-.9h-8zm14 7.1c0 1.8-.6 3.1-2.4 3.7-.8.4-1.9.5-3.7.5h-3.7v-8.5h3.6c2.2 0 3.9.2 4.8.8.9.7 1.4 1.8 1.4 3.5m15.7 4.7c0-5.9-2-10.9-6.2-15.3-4.2-4.2-9.1-6.2-14.9-6.2-5.8 0-10.8 2-15 6.2-4.2 4.4-6.2 9.4-6.2 15.3 0 6.1 2 11.2 6.2 15.4 4.2 4.4 9.1 6.3 15 6.3 5.8 0 10.8-1.9 14.9-6.3 4.2-4.3 6.2-9.4 6.2-15.4m-21.2-18.6c5.1 0 9.4 1.8 12.9 5.4 3.6 3.6 5.4 8 5.4 13.2 0 5.1-1.8 9.6-5.4 13.2-3.6 3.7-7.8 5.5-12.9 5.5-5 0-9.5-1.8-12.8-5.5-3.6-3.6-5.5-8.1-5.5-13.2 0-5.2 2-9.7 5.5-13.2 3.5-3.6 7.7-5.4 12.8-5.4"/><path class="st7" d="M836.5 337.2h33.7V446h-33.7zM886.8 367H916v10h.2c5.7-7.9 13.8-12.1 25.7-12.1 14.2 0 27.2 8.7 27.2 26.9V446H939v-41.4c0-9.1-1.1-15.4-10-15.4-5.2 0-12.1 2.5-12.1 15.1V446h-30.1v-79zM1021.8 367h16.2v18.5h-16.2v27.6c0 7.4 1.7 10.5 9.2 10.5 2.4 0 4.7-.2 7-.5V446c-6.1 0-13.1.8-19.4.8-12.7 0-26.9-1.9-26.9-23.5v-37.9h-13.6V367h13.6v-24.2h30.1V367zM1102 397.5c0-7.3-5.5-13.1-13.1-13.1-9.1 0-14.3 4.6-15.7 13.1h28.8zm-29 15.8c.8 8.9 5.9 15.4 15.4 15.4 4.7 0 10-1.8 12.6-5.7h28.1c-6.1 17.1-22.7 25-40.6 25-25.3 0-44.3-15-44.3-41.3 0-23.1 16.8-41.7 41.7-41.7 31.4 0 45 17.3 45 48.3H1073zM1143.6 367h29v12.6h.2c4.9-9.4 11.2-14.6 22.2-14.6 3 0 6 .5 8.9 1.3v26.5c-3.1-.8-6-1.8-12-1.8-11.8 0-18.2 7-18.2 23.8V446h-30.2v-79zM1213.8 367h29.2v10h.4c5.5-7.9 13.6-12.1 25.6-12.1 14.2 0 27 8.7 27 26.9V446h-30.2v-41.4c0-9.1-1.1-15.4-9.8-15.4-5.1 0-12 2.5-12 15.1V446h-30.3v-79zM1360.7 410.5c-3.7 1.8-7.8 3-11.8 3.7-6.7 1.5-10.2 3.2-10.2 8.5 0 3.7 4 7.3 9.4 7.3 6.8 0 12.2-4 12.6-12.3v-7.2zm29 18c0 5.9.4 12.5 3.7 17.5h-30.8c-.8-2.1-1.2-5.3-1-7.5h-.3c-6.3 7.4-15.6 9.5-25.5 9.5-15.2 0-27.9-7.3-27.9-24.1 0-24.8 29.2-23.8 44.6-26.8 4.1-.7 8.3-2 8.3-7 0-5.3-5-7.4-9.9-7.4-9.3 0-11.2 4.8-11.2 8.1h-28c.8-22.2 21.8-25.9 40.5-25.9 37.9 0 37.5 15.8 37.5 30.9v32.7zM1441.9 367h16.3v18.5h-16.3v27.6c0 7.4 1.8 10.5 9.4 10.5 2.2 0 4.5-.2 6.9-.5V446c-6.2 0-13 .8-19.5.8-12.8 0-26.9-1.9-26.9-23.5v-37.9h-13.4V367h13.4v-24.2h30.1V367zM1468.3 446h30.1v-79h-30.1v79zm0-87.6h30.1v-21.2h-30.1v21.2zM1551.2 386.9c-11.5 0-13 11-13 19.4 0 8.4 1.6 19.8 13 19.8 11.2 0 12.7-11.3 12.7-19.8 0-8.4-1.5-19.4-12.7-19.4m0 61.1c-29.6 0-43.3-19.7-43.3-41.7 0-21.8 13.6-41.4 43.3-41.4 29.6 0 42.9 19.6 42.9 41.4 0 22-13.4 41.7-42.9 41.7M1607.3 367h29.1v10h.3c5.7-7.9 13.8-12.1 25.7-12.1 14.3 0 27.3 8.7 27.3 26.9V446h-30.1v-41.4c0-9.1-1.1-15.4-10-15.4-5.2 0-12.1 2.5-12.1 15.1V446h-30.2v-79zM1754.2 410.5c-3.7 1.8-7.8 3-12 3.7-6.7 1.5-10.1 3.2-10.1 8.5 0 3.7 3.9 7.3 9.4 7.3 6.8 0 12.1-4 12.6-12.3v-7.2zm29 18c0 5.9.3 12.5 3.6 17.5h-30.6c-.8-2.1-1.3-5.3-1.1-7.5h-.3c-6.5 7.4-15.8 9.5-25.5 9.5-15.3 0-27.9-7.3-27.9-24.1 0-24.8 29.2-23.8 44.6-26.8 4.1-.7 8.3-2 8.3-7 0-5.3-5-7.4-9.9-7.4-9.2 0-11 4.8-11.3 8.1h-28c1-22.2 22-25.9 40.7-25.9 37.8 0 37.5 15.8 37.5 30.9v32.7zM1799.6 337.2h30.1V446h-30.1z"/></g></svg>