<svg id="Слой_1" xmlns="http://www.w3.org/2000/svg" xmlns:xlink="http://www.w3.org/1999/xlink" viewBox="0 0 2000 2000"><style>.st0{clip-path:url(#SVGID_2_)}.st17,.st19{clip-path:url(#SVGID_8_);fill:#d22950}.st19{fill:#fff}.st20{fill:#424554}</style><defs><path id="SVGID_1_" d="M0 0h2000v2000H0z"/></defs><clipPath id="SVGID_2_"><use xlink:href="#SVGID_1_" overflow="visible"/></clipPath><g class="st0"><defs><path id="SVGID_3_" d="M0 0h2000v2000H0z"/></defs><clipPath id="SVGID_4_"><use xlink:href="#SVGID_3_" overflow="visible"/></clipPath><g clip-path="url(#SVGID_4_)"><defs><path id="SVGID_5_" d="M155 182.6h1652.4v1548.2H155z"/></defs><clipPath id="SVGID_6_"><use xlink:href="#SVGID_5_" overflow="visible"/></clipPath><path clip-path="url(#SVGID_6_)" fill="#36bdb4" d="M536.2 287.2L284.4 537.4l395 .3z"/><path clip-path="url(#SVGID_6_)" fill="#325a9f" d="M833.4 287.2l-154 250.5-143.2-250.5z"/><path clip-path="url(#SVGID_6_)" fill="#3969ac" d="M1215.8 287.2H831.5L679.4 537.7l393.5-3.8z"/><path clip-path="url(#SVGID_6_)" fill="#099d80" d="M1330.6 287.2h-116.4l-141.3 246.7 399.7 1.6z"/><path clip-path="url(#SVGID_6_)" fill="#bdc93b" d="M1500.7 287.2h-170.1l142 248.3L1576.4 362z"/><path clip-path="url(#SVGID_6_)" fill="#80bd42" d="M1750.3 543.1L1576.4 362l-103.8 173.5z"/><path clip-path="url(#SVGID_6_)" fill="#e45b27" d="M1580.4 715.4l-107.8-179.9 277.7 7.6z"/><path clip-path="url(#SVGID_6_)" fill="#ee7465" d="M1410.9 881.9l169.5-166.6-107.8-179.8-197.5 339.8z"/><path clip-path="url(#SVGID_6_)" fill="#e85c26" d="M884.2 877.7l390.9-2.4-204-343.6z"/><path clip-path="url(#SVGID_6_)" fill="#f48e47" d="M679.4 537.7l204.8 340 186.9-346z"/><path clip-path="url(#SVGID_6_)" fill="#e8ac54" d="M527.8 784l151.6-246.3 204.8 340-257 6.1z"/><path clip-path="url(#SVGID_6_)" fill="#f4cd5b" d="M527.8 784l-247-246.6 398.6.3z"/><path clip-path="url(#SVGID_6_)" fill="#ea4724" d="M779.6 1041l104.6-163.3-257 6.1z"/><path clip-path="url(#SVGID_6_)" fill="#ee5c4b" d="M1472.6 535.5l-401.5-3.8 204 343.6z"/><g clip-path="url(#SVGID_6_)"><defs><path id="SVGID_7_" d="M201.5 228h1597v1463.4h-1597z"/></defs><clipPath id="SVGID_8_"><use xlink:href="#SVGID_7_" overflow="visible"/></clipPath><path class="st17" d="M1029.5 876.8l-145.3.9L779.6 1041l92.3 89.1v-.1c0-.1 101.3-97.3 157.6-253.2M1275.1 875.3l-87.6.5c-8.5 76.7-29.7 160.4-68.3 250.7l155.9-251.2z"/><path d="M1064.4 1237.9L1411 882l-135.8-6.6-155.9 251.3c-15.5 35.9-33.7 73-54.9 111.2" clip-path="url(#SVGID_8_)" fill="#c5286c"/><path class="st19" d="M962.8 287.2h-34.1c168.1 228.5 156 437 100.9 589.6l158-1c42.1-379.2-224.8-588.6-224.8-588.6M1119.2 1126.6c38.6-90.3 59.8-174 68.3-250.7l-158 1C973.2 1032.8 871.8 1130 871.8 1130v.1l153.3 148 94.1-151.5z"/><path class="st19" d="M1025.2 1278.1l39.1-40.2c21.3-38.1 39.4-75.2 54.8-111.3l-93.9 151.5z"/></g></g></g><g class="st0"><path class="st20" d="M695.2 1377.1c9.9-1.5 21.7-2.6 34.5-2.6 23.3 0 40 5.4 51 15.7 11.2 10.3 17.7 24.8 17.7 45.2 0 20.5-6.3 37.3-18.1 48.9-11.8 11.8-31.2 18.1-55.6 18.1-11.6 0-21.3-.6-29.5-1.5v-123.8zm16.2 111.3c4.1.7 10.1.9 16.4.9 34.7 0 53.6-19.4 53.6-53.4.2-29.7-16.6-48.5-51-48.5-8.4 0-14.8.7-19 1.7v99.3zM835.8 1375.4v125.9h-16.2v-125.9h16.2zM861.9 1481.5c7.3 4.5 17.9 8.2 29.1 8.2 16.6 0 26.3-8.8 26.3-21.5 0-11.8-6.7-18.5-23.7-25-20.5-7.3-33.2-17.9-33.2-35.7 0-19.6 16.2-34.2 40.7-34.2 12.9 0 22.2 3 27.8 6.2l-4.5 13.3c-4.1-2.2-12.5-6-23.9-6-17.2 0-23.7 10.3-23.7 18.9 0 11.8 7.7 17.6 25 24.3 21.3 8.2 32.1 18.5 32.1 37 0 19.4-14.4 36.2-44.1 36.2-12.1 0-25.4-3.5-32.1-8l4.2-13.7zM980.1 1389.2h-38.3v-13.8h93.2v13.8h-38.5v112h-16.4v-112zM1049 1377.1c8.2-1.7 20-2.6 31.2-2.6 17.4 0 28.6 3.2 36.4 10.3 6.3 5.6 9.9 14.2 9.9 23.9 0 16.6-10.5 27.6-23.7 32.1v.6c9.7 3.4 15.5 12.3 18.5 25.4 4.1 17.6 7.1 29.7 9.7 34.5h-16.8c-2.1-3.5-4.9-14.4-8.4-30.1-3.7-17.4-10.5-23.9-25.2-24.5h-15.3v54.5H1049v-124.1zm16.3 57.3h16.6c17.4 0 28.4-9.5 28.4-23.9 0-16.2-11.8-23.3-28.9-23.5-7.8 0-13.4.7-16.1 1.5v45.9zM1214.6 1442.3h-48.9v45.4h54.5v13.6h-70.8v-125.9h68v13.6h-51.7v39.8h48.9v13.5zM1306.5 1442.3h-48.9v45.4h54.5v13.6h-70.8v-125.9h68v13.6h-51.7v39.8h48.9v13.5z"/></g><g class="st0"><path class="st20" d="M284.2 1601.1c9.9-1.5 21.7-2.6 34.5-2.6 23.3 0 40 5.4 51 15.7 11.2 10.3 17.7 24.8 17.7 45.2 0 20.5-6.3 37.3-18.1 48.9-11.8 11.8-31.2 18.1-55.6 18.1-11.6 0-21.3-.6-29.5-1.5v-123.8zm16.3 111.3c4.1.7 10.1.9 16.4.9 34.7 0 53.6-19.4 53.6-53.4.2-29.7-16.6-48.5-51-48.5-8.4 0-14.8.7-19 1.7v99.3zM424.8 1599.5v125.9h-16.2v-125.9h16.2zM473.6 1685.7l-13.1 39.6h-16.8l42.8-125.9H506l42.9 125.9h-17.4l-13.4-39.6h-44.5zm41.2-12.7l-12.3-36.2c-2.8-8.2-4.7-15.7-6.5-23h-.4c-1.9 7.5-3.9 15.1-6.3 22.8L477 1673h37.8zM673.5 1670c-.9-17.6-2.1-38.7-1.9-54.3h-.6c-4.3 14.8-9.5 30.4-15.9 47.8l-22.2 61.1h-12.3l-20.4-59.9c-6-17.7-11-34-14.6-48.9h-.4c-.4 15.7-1.3 36.8-2.4 55.6l-3.4 54h-15.5l8.8-125.9h20.7l21.5 60.9c5.2 15.5 9.5 29.3 12.7 42.4h.6c3.2-12.7 7.7-26.5 13.3-42.4l22.4-60.9h20.7l7.8 125.9h-15.9l-3-55.4zM825.1 1661.1c0 43.3-26.3 66.3-58.4 66.3-33.2 0-56.6-25.8-56.6-63.9 0-40 24.8-66.1 58.4-66.1 34.4 0 56.6 26.3 56.6 63.7zm-97.6 2c0 26.9 14.6 51 40.1 51 25.8 0 40.3-23.7 40.3-52.3 0-25-13.1-51.2-40.1-51.2-26.9.1-40.3 24.9-40.3 52.5zM846.2 1725.3v-125.9H864l40.3 63.7c9.3 14.8 16.6 28 22.6 40.9l.4-.2c-1.5-16.8-1.9-32.1-1.9-51.7v-52.7h15.3v125.9h-16.4l-40-63.9c-8.8-14-17.2-28.4-23.5-42l-.6.2c.9 15.9 1.3 31 1.3 51.9v53.8h-15.3zM969.1 1601.1c9.9-1.5 21.7-2.6 34.5-2.6 23.3 0 40 5.4 51 15.7 11.2 10.3 17.7 24.8 17.7 45.2 0 20.5-6.3 37.3-18.1 48.9-11.8 11.8-31.2 18.1-55.6 18.1-11.6 0-21.3-.6-29.5-1.5v-123.8zm16.2 111.3c4.1.7 10.1.9 16.4.9 34.7 0 53.6-19.4 53.6-53.4.2-29.7-16.6-48.5-51-48.5-8.4 0-14.8.7-19 1.7v99.3zM1153.4 1685.7l-13.1 39.6h-16.8l42.8-125.9h19.6l42.9 125.9h-17.4l-13.4-39.6h-44.6zm41.2-12.7l-12.3-36.2c-2.8-8.2-4.7-15.7-6.5-23h-.4c-1.9 7.5-3.9 15.1-6.3 22.8l-12.3 36.4h37.8zM1267.8 1725.3l-31.9-125.9h17.2l14.9 63.7c3.7 15.7 7.1 31.4 9.3 43.5h.4c2.1-12.5 6-27.4 10.3-43.7l16.8-63.5h17l15.3 63.9c3.5 14.9 6.9 29.9 8.8 43.1h.4c2.6-13.8 6.2-27.8 10.1-43.5l16.6-63.5h16.6l-35.7 125.9h-17l-15.9-65.5c-3.9-16.1-6.5-28.4-8.2-41.1h-.4c-2.2 12.5-5 24.8-9.7 41.1l-17.9 65.5h-17zM1425.6 1685.7l-13.1 39.6h-16.8l42.8-125.9h19.6l42.9 125.9h-17.4l-13.4-39.6h-44.6zm41.3-12.7l-12.3-36.2c-2.8-8.2-4.7-15.7-6.5-23h-.4c-1.9 7.5-3.9 15.1-6.3 22.8L1429 1673h37.9zM1519.5 1601.1c8.2-1.7 20-2.6 31.2-2.6 17.4 0 28.6 3.2 36.4 10.3 6.3 5.6 9.9 14.2 9.9 23.9 0 16.6-10.5 27.6-23.7 32.1v.6c9.7 3.4 15.5 12.3 18.5 25.4 4.1 17.6 7.1 29.7 9.7 34.5h-16.8c-2.1-3.5-4.9-14.4-8.4-30.1-3.7-17.4-10.5-23.9-25.2-24.5h-15.3v54.5h-16.2v-124.1zm16.3 57.4h16.6c17.4 0 28.4-9.5 28.4-23.9 0-16.2-11.8-23.3-28.9-23.5-7.8 0-13.4.7-16.1 1.5v45.9zM1620 1601.1c9.9-1.5 21.7-2.6 34.5-2.6 23.3 0 40 5.4 51 15.7 11.2 10.3 17.7 24.8 17.7 45.2 0 20.5-6.3 37.3-18.1 48.9-11.8 11.8-31.2 18.1-55.6 18.1-11.6 0-21.3-.6-29.5-1.5v-123.8zm16.2 111.3c4.1.7 10.1.9 16.4.9 34.7 0 53.6-19.4 53.6-53.4.2-29.7-16.6-48.5-51-48.5-8.4 0-14.8.7-19 1.7v99.3z"/></g></svg>