<svg id="Слой_1" xmlns="http://www.w3.org/2000/svg" xmlns:xlink="http://www.w3.org/1999/xlink" viewBox="0 0 2000 2000"><style>.st0{fill:#424554}.st2{clip-path:url(#SVGID_2_);fill:#fff}</style><path class="st0" d="M82.4 1376.7c9.9-1.5 21.7-2.6 34.5-2.6 23.3 0 40 5.4 51 15.7 11.2 10.3 17.7 24.8 17.7 45.2 0 20.5-6.3 37.3-18.1 48.9-11.8 11.8-31.2 18.1-55.6 18.1-11.6 0-21.3-.6-29.5-1.5v-123.8zM98.6 1488c4.1.7 10.1.9 16.4.9 34.7 0 53.6-19.4 53.6-53.4.2-29.7-16.6-48.5-51-48.5-8.4 0-14.8.7-19 1.7v99.3zM271.9 1441.9H223v45.4h54.5v13.6h-70.8V1375h68v13.6H223v39.8h48.9v13.5zM296.4 1481.1c7.3 4.5 17.9 8.2 29.1 8.2 16.6 0 26.3-8.8 26.3-21.5 0-11.8-6.7-18.5-23.7-25-20.5-7.3-33.2-17.9-33.2-35.7 0-19.6 16.2-34.2 40.7-34.2 12.9 0 22.2 3 27.8 6.2l-4.5 13.3c-4.1-2.2-12.5-6-23.9-6-17.2 0-23.7 10.3-23.7 18.9 0 11.8 7.7 17.6 25 24.3 21.3 8.2 32.1 18.5 32.1 37 0 19.4-14.4 36.2-44.1 36.2-12.1 0-25.4-3.5-32.1-8l4.2-13.7zM406.9 1375v125.9h-16.2V1375h16.2zM531.1 1495.3c-7.3 2.6-21.7 6.9-38.7 6.9-19 0-34.7-4.9-47.1-16.6-10.8-10.5-17.6-27.3-17.6-46.9.2-37.5 26-65 68.2-65 14.6 0 26 3.2 31.4 5.8l-3.9 13.3c-6.7-3-15.1-5.4-27.8-5.4-30.6 0-50.6 19-50.6 50.6 0 31.9 19.2 50.8 48.5 50.8 10.6 0 17.9-1.5 21.7-3.4v-37.5h-25.6v-13.1h41.5v60.5zM555.9 1500.9V1375h17.7l40.3 63.7c9.3 14.8 16.6 28 22.6 40.9l.4-.2c-1.5-16.8-1.9-32.1-1.9-51.7V1375h15.3v125.9H634l-40-63.9c-8.8-14-17.2-28.4-23.5-42l-.6.2c.9 15.9 1.3 31 1.3 51.9v53.8h-15.3zM797.1 1500.9c-3.5-3.5-6.9-7.1-11.8-12.3-10.8 10.1-23 14.4-36.8 14.4-24.5 0-38.7-16.4-38.7-35.3 0-17.2 10.3-28.9 24.6-36.8v-.6c-6.5-8.2-10.5-17.4-10.5-26.3 0-15.3 11-31 31.9-31 15.7 0 27.8 10.5 27.8 26.7 0 13.3-7.7 23.7-27.6 33.6v.6c10.6 12.3 22.6 26.1 30.6 35.1 5.8-8.8 9.7-20.9 12.1-36.8h14.9c-3.4 19.8-8.8 35.5-18.1 46.5 6.7 7.1 13.3 14.2 20.7 22.2h-19.1zm-19.8-21.7c-7.5-8.2-21.5-23.5-35.5-39.6-6.7 4.3-16.2 12.3-16.2 25.6 0 14.4 10.6 25.4 25.8 25.4 10.8 0 20-4.8 25.9-11.4zm-38.2-76.7c0 9 4.1 15.9 9.5 22.6 12.7-7.3 20.9-14 20.9-24.6 0-7.7-4.3-16.2-14.6-16.2-10.4-.1-15.8 8.5-15.8 18.2zM936.1 1441.9h-48.9v45.4h54.5v13.6h-70.8V1375h68v13.6h-51.7v39.8h48.9v13.5zM962.7 1500.9V1375h17.7l40.3 63.7c9.3 14.8 16.6 28 22.6 40.9l.4-.2c-1.5-16.8-1.9-32.1-1.9-51.7V1375h15.3v125.9h-16.4l-40-63.9c-8.8-14-17.2-28.4-23.5-42l-.6.2c.9 15.9 1.3 31 1.3 51.9v53.8h-15.2zM1181.4 1495.3c-7.3 2.6-21.7 6.9-38.7 6.9-19 0-34.7-4.9-47.1-16.6-10.8-10.5-17.6-27.3-17.6-46.9.2-37.5 26-65 68.2-65 14.6 0 26 3.2 31.4 5.8l-3.9 13.3c-6.7-3-15.1-5.4-27.8-5.4-30.6 0-50.6 19-50.6 50.6 0 31.9 19.2 50.8 48.5 50.8 10.6 0 17.9-1.5 21.7-3.4v-37.5h-25.6v-13.1h41.5v60.5zM1222.5 1375v125.9h-16.2V1375h16.2zM1250.8 1500.9V1375h17.7l40.3 63.7c9.3 14.8 16.6 28 22.6 40.9l.4-.2c-1.5-16.8-1.9-32.1-1.9-51.7V1375h15.3v125.9h-16.4l-40-63.9c-8.8-14-17.2-28.4-23.5-42l-.6.2c.9 15.9 1.3 31 1.3 51.9v53.8h-15.2zM1438.9 1441.9H1390v45.4h54.5v13.6h-70.8V1375h68v13.6H1390v39.8h48.9v13.5zM1530.7 1441.9h-48.9v45.4h54.5v13.6h-70.8V1375h68v13.6h-51.7v39.8h48.9v13.5zM1557.4 1376.7c8.2-1.7 20-2.6 31.2-2.6 17.4 0 28.6 3.2 36.4 10.3 6.3 5.6 9.9 14.2 9.9 23.9 0 16.6-10.5 27.6-23.7 32.1v.6c9.7 3.4 15.5 12.3 18.5 25.4 4.1 17.6 7.1 29.7 9.7 34.5h-16.8c-2.1-3.5-4.9-14.4-8.4-30.1-3.7-17.4-10.5-23.9-25.2-24.5h-15.3v54.5h-16.2v-124.1zm16.3 57.3h16.6c17.4 0 28.4-9.5 28.4-23.9 0-16.2-11.8-23.3-28.9-23.5-7.8 0-13.4.7-16.1 1.5v45.9zM1674.1 1375v125.9h-16.2V1375h16.2zM1702.5 1500.9V1375h17.7l40.3 63.7c9.3 14.8 16.6 28 22.6 40.9l.4-.2c-1.5-16.8-1.9-32.1-1.9-51.7V1375h15.3v125.9h-16.4l-40-63.9c-8.8-14-17.2-28.4-23.5-42l-.6.2c.9 15.9 1.3 31 1.3 51.9v53.8h-15.2zM1921.2 1495.3c-7.3 2.6-21.7 6.9-38.7 6.9-19 0-34.7-4.9-47.1-16.6-10.8-10.5-17.6-27.3-17.6-46.9.2-37.5 26-65 68.2-65 14.6 0 26 3.2 31.4 5.8l-3.9 13.3c-6.7-3-15.1-5.4-27.8-5.4-30.6 0-50.6 19-50.6 50.6 0 31.9 19.2 50.8 48.5 50.8 10.6 0 17.9-1.5 21.7-3.4v-37.5h-25.6v-13.1h41.5v60.5z"/><g><path class="st0" d="M191.4 1705.2c7.3 4.5 17.9 8.2 29.1 8.2 16.6 0 26.3-8.8 26.3-21.5 0-11.8-6.7-18.5-23.7-25-20.5-7.3-33.2-17.9-33.2-35.7 0-19.6 16.2-34.2 40.7-34.2 12.9 0 22.2 3 27.8 6.2l-4.5 13.3c-4.1-2.2-12.5-6-23.9-6-17.2 0-23.7 10.3-23.7 18.9 0 11.8 7.7 17.6 25 24.3 21.3 8.2 32.1 18.5 32.1 37 0 19.4-14.4 36.2-44.1 36.2-12.1 0-25.4-3.5-32.1-8l4.2-13.7zM302 1599.1v52.7h60.9v-52.7h16.4V1725h-16.4v-59H302v59h-16.2v-125.9H302zM515 1660.7c0 43.3-26.3 66.3-58.4 66.3-33.2 0-56.6-25.8-56.6-63.9 0-40 24.8-66.1 58.4-66.1 34.4 0 56.6 26.4 56.6 63.7zm-97.6 2.1c0 26.9 14.6 51 40.1 51 25.8 0 40.3-23.7 40.3-52.3 0-25-13.1-51.2-40.1-51.2-26.9 0-40.3 24.8-40.3 52.5zM556.7 1724.9L524.8 1599H542l14.9 63.7c3.7 15.7 7.1 31.4 9.3 43.5h.4c2.1-12.5 6-27.4 10.3-43.7l16.8-63.5h17l15.3 63.9c3.5 14.9 6.9 29.9 8.8 43.1h.4c2.6-13.8 6.2-27.8 10.1-43.5l16.6-63.5h16.6l-35.7 125.9h-17l-15.9-65.5c-3.9-16.1-6.5-28.4-8.2-41.1h-.4c-2.2 12.5-5 24.8-9.7 41.1l-17.9 65.5h-17zM782 1720.8c-6 3-17.9 6-33.2 6-35.5 0-62.2-22.4-62.2-63.7 0-39.4 26.7-66.1 65.7-66.1 15.7 0 25.6 3.4 29.9 5.6l-3.9 13.3c-6.2-3-14.9-5.2-25.4-5.2-29.5 0-49.1 18.9-49.1 51.9 0 30.8 17.7 50.6 48.4 50.6 9.9 0 20-2.1 26.5-5.2l3.3 12.8zM822.7 1685.4l-13.1 39.6h-16.8l42.8-125.9h19.6l42.9 125.9h-17.4l-13.4-39.6h-44.6zm41.3-12.7l-12.3-36.2c-2.8-8.2-4.7-15.7-6.5-23h-.4c-1.9 7.5-3.9 15.1-6.3 22.8l-12.3 36.4H864zM914.4 1705.2c7.3 4.5 17.9 8.2 29.1 8.2 16.6 0 26.3-8.8 26.3-21.5 0-11.8-6.7-18.5-23.7-25-20.5-7.3-33.2-17.9-33.2-35.7 0-19.6 16.2-34.2 40.7-34.2 12.9 0 22.2 3 27.8 6.2l-4.5 13.3c-4.1-2.2-12.5-6-23.9-6-17.2 0-23.7 10.3-23.7 18.9 0 11.8 7.7 17.6 25 24.3 21.3 8.2 32.1 18.5 32.1 37 0 19.4-14.4 36.2-44.1 36.2-12.1 0-25.4-3.5-32.1-8l4.2-13.7zM1073.9 1665.9H1025v45.4h54.5v13.6h-70.8V1599h68v13.6H1025v39.8h48.9v13.5zM1156.4 1599.1v52.7h60.9v-52.7h16.4V1725h-16.4v-59h-60.9v59h-16.2v-125.9h16.2zM1369.4 1660.7c0 43.3-26.3 66.3-58.4 66.3-33.2 0-56.6-25.8-56.6-63.9 0-40 24.8-66.1 58.4-66.1 34.4 0 56.6 26.4 56.6 63.7zm-97.6 2.1c0 26.9 14.6 51 40.1 51 25.8 0 40.3-23.7 40.3-52.3 0-25-13.1-51.2-40.1-51.2-26.9 0-40.3 24.8-40.3 52.5zM1390.5 1724.9V1599h17.7l40.3 63.7c9.3 14.8 16.6 28 22.6 40.9l.4-.2c-1.5-16.8-1.9-32.1-1.9-51.7V1599h15.3v125.9h-16.4l-40-63.9c-8.8-14-17.2-28.4-23.5-42l-.6.2c.9 15.9 1.3 31 1.3 51.9v53.8h-15.2zM1620.9 1660.7c0 43.3-26.3 66.3-58.4 66.3-33.2 0-56.6-25.8-56.6-63.9 0-40 24.8-66.1 58.4-66.1 34.4 0 56.6 26.4 56.6 63.7zm-97.6 2.1c0 26.9 14.6 51 40.1 51 25.8 0 40.3-23.7 40.3-52.3 0-25-13.1-51.2-40.1-51.2-26.9 0-40.3 24.8-40.3 52.5zM1642 1600.8c8.2-1.7 20-2.6 31.2-2.6 17.4 0 28.6 3.2 36.4 10.3 6.3 5.6 9.9 14.2 9.9 23.9 0 16.6-10.5 27.6-23.7 32.1v.6c9.7 3.4 15.5 12.3 18.5 25.4 4.1 17.6 7.1 29.7 9.7 34.5h-16.8c-2.1-3.5-4.9-14.4-8.4-30.1-3.7-17.4-10.5-23.9-25.2-24.5h-15.3v54.5H1642v-124.1zm16.3 57.3h16.6c17.4 0 28.4-9.5 28.4-23.9 0-16.2-11.8-23.3-28.9-23.5-7.8 0-13.4.7-16.1 1.5v45.9z"/></g><g><path class="st0" d="M1738.4 1705.2c7.3 4.5 17.9 8.2 29.1 8.2 16.6 0 26.3-8.8 26.3-21.5 0-11.8-6.7-18.5-23.7-25-20.5-7.3-33.2-17.9-33.2-35.7 0-19.6 16.2-34.2 40.7-34.2 12.9 0 22.2 3 27.8 6.2l-4.5 13.3c-4.1-2.2-12.5-6-23.9-6-17.2 0-23.7 10.3-23.7 18.9 0 11.8 7.7 17.6 25 24.3 21.3 8.2 32.1 18.5 32.1 37 0 19.4-14.4 36.2-44.1 36.2-12.1 0-25.4-3.5-32.1-8l4.2-13.7z"/></g><g><defs><path id="SVGID_1_" d="M0 0h2000v2000H0z"/></defs><clipPath id="SVGID_2_"><use xlink:href="#SVGID_1_" overflow="visible"/></clipPath><path d="M1362.6 941.8V273.9c0-25.1-20.5-45.6-45.5-45.6H682.8c-24.9 0-45.4 20.5-45.4 45.6v667.9c0 24.7 19.9 44.9 44.4 45.5-24.6.7-44.4 20.8-44.4 45.4v157.9c0 25 20.5 45.4 45.5 45.4h634.2c25 0 45.5-20.4 45.5-45.4v-157.9c0-24.6-19.8-44.8-44.3-45.4 24.5-.6 44.3-20.7 44.3-45.5" clip-path="url(#SVGID_2_)" fill="#242121"/><path class="st2" d="M742.3 646.7h2.6V682h-2.6zM780.9 646.7v30.7l-24.3-30.7H754V682h2.6v-31.3l24.8 31.3h2v-35.3zM789.7 646.7v2.4H802V682h2.6v-32.9h12.3v-2.4zM823.2 646.7V682h25.4v-2.3h-22.8v-14.2h20.3V663h-20.3v-13.9h22.6v-2.4zM869.8 665.1c6 0 10.4-3 10.4-8.1v-.1c0-4.7-3.7-7.8-10.2-7.8h-12v16h11.8zm-14.4-18.4h14.9c4.4 0 7.8 1.5 9.9 3.6 1.6 1.6 2.7 4 2.7 6.6v.1c0 5.8-4.4 9.3-10.3 10.2l11.7 15h-3.4l-11.2-14.6H858V682h-2.6v-35.3zM917 646.7v30.7l-24.4-30.7h-2.4V682h2.6v-31.3l24.8 31.3h2v-35.3zM943 649.4l9.3 20.4h-18.6l9.3-20.4zm-1.2-2.9l-16.4 35.6h2.7l4.5-9.9h20.8l4.5 9.9h2.9l-16.4-35.6h-2.6zM964 646.7v2.4h12.4V682h2.6v-32.9h12.3v-2.4zM997.9 646.7h2.7V682h-2.7zM1040.9 664.5v-.1c0-8.7-6.3-15.9-15-15.9s-15 7.1-15 15.8v.1c0 8.7 6.3 15.9 15.1 15.9 8.6 0 14.9-7.1 14.9-15.8m-32.8 0v-.1c0-9.7 7.1-18.3 17.8-18.3 10.7 0 17.7 8.6 17.7 18.2v.1c0 9.7-7.1 18.3-17.8 18.3-10.7 0-17.7-8.5-17.7-18.2M1077.7 646.7v30.7l-24.3-30.7h-2.5V682h2.6v-31.3l24.8 31.3h2v-35.3zM1103.8 649.4l9.3 20.4h-18.6l9.3-20.4zm-1.3-2.9l-16.5 35.6h2.8l4.5-9.9h20.9l4.5 9.9h2.9l-16.5-35.6h-2.6zM1127.3 646.7V682h23.4v-2.3h-20.8v-33zM1168.7 664.5v-.1c0-10 7.5-18.3 17.6-18.3 6.4 0 10.2 2.4 13.7 5.7l-1.8 1.9c-3.1-3-6.6-5.2-11.9-5.2-8.6 0-14.9 6.9-14.9 15.8v.1c0 8.9 6.5 15.9 14.9 15.9 5 0 8.5-2 12.1-5.5l1.8 1.7c-3.7 3.7-7.7 6.2-14.1 6.2-9.8 0-17.4-8.1-17.4-18.2M1205.9 646.7V682h25.3v-2.3h-22.7v-14.2h20.2V663h-20.2v-13.9h22.5v-2.4zM1235.7 676.9l1.7-1.9c3.9 3.6 7.5 5.2 12.6 5.2 5.4 0 9.1-2.9 9.1-7 0-3.8-2-5.9-10-7.5-8.5-1.8-12-4.6-12-9.9v-.2c0-5.3 4.9-9.2 11.5-9.2 5.1 0 8.4 1.4 12 4.3l-1.7 2.1c-3.4-2.9-6.7-4-10.5-4-5.3 0-8.7 3-8.7 6.6v.2c0 3.7 1.9 6 10.3 7.7 8.2 1.6 11.6 4.6 11.6 9.7v.1c0 5.8-4.9 9.7-11.6 9.7-5.8-.2-10.2-2.1-14.3-5.9M676.7 810.4c7.4 0 12.2-5 12.2-11.9v-.1c0-6.9-4.8-12-12.2-12h-7v24.1h7zm-13.2-29.6h13.2c11 0 18.8 7.7 18.8 17.5v.1c0 9.9-7.8 17.7-18.8 17.7h-13.2v-35.3zM701.3 780.7v35.4h26.5v-5.6h-20.3v-9.4h17.8v-5.6h-17.8v-9.1h20v-5.7zM731 810.9l3.8-4.4c3.4 2.9 6.8 4.6 11.2 4.6 3.9 0 6.3-1.8 6.3-4.5v-.1c0-2.6-1.4-3.9-8-5.4-7.5-1.8-11.7-4-11.7-10.5v-.1c0-6 5-10.2 12.1-10.2 5.1 0 9.2 1.5 12.8 4.5l-3.3 4.7c-3.2-2.4-6.4-3.6-9.6-3.6-3.6 0-5.7 1.9-5.7 4.2v.1c0 2.7 1.6 3.9 8.4 5.5 7.5 1.8 11.3 4.5 11.3 10.4v.2c0 6.5-5.1 10.4-12.6 10.4-5.6-.1-10.7-2-15-5.8M764.4 780.7h6.3V816h-6.3zM776.8 798.5v-.2c0-9.8 7.6-18.3 18.3-18.3 6.1 0 9.9 1.8 13.6 4.8l-4 4.7c-2.8-2.4-5.4-3.8-9.9-3.8-6.5 0-11.4 5.7-11.4 12.5v.1c0 7.4 4.7 12.7 12 12.7 3.2 0 6.4-1 8.5-2.8v-6.6h-9.1v-5.3h15v14.9c-3.4 2.9-8.4 5.5-14.7 5.5-11 0-18.3-7.9-18.3-18.2M840.9 780.7v24.5L822 780.7h-5.8v35.4h6.1V791l19.5 25.1h5.2v-35.4zM883 787.9l6.2 14.1H877l6-14.1zm-2.6-7.4L864.9 816h6.3l3.6-8.4h16.7l3.6 8.4h6.6l-15.5-35.5h-5.8zM930.8 780.7v24.5l-19-24.5H906v35.4h6.2V791l19.4 25.1h5.2v-35.4zM957.4 810.4c7.3 0 12.3-5 12.3-11.9v-.1c0-6.9-5-12-12.3-12h-7v24.1h7zm-13.2-29.6h13.2c11.1 0 18.8 7.7 18.8 17.5v.1c0 9.9-7.7 17.7-18.8 17.7h-13.2v-35.3zM995.5 780.7v35.4h26.3v-5.6h-20.1v-9.4h17.7v-5.6h-17.7v-9.1h20v-5.7zM1052.3 780.7v24.5l-19-24.5h-5.8v35.4h6.1V791l19.6 25.1h5.1v-35.4zM1064.2 798.5v-.2c0-9.8 7.6-18.3 18.1-18.3 6.2 0 9.9 1.8 13.6 4.8l-3.9 4.7c-2.8-2.4-5.4-3.8-9.9-3.8-6.5 0-11.5 5.7-11.5 12.5v.1c0 7.4 4.8 12.7 12 12.7 3.3 0 6.4-1 8.5-2.8v-6.6h-9.1v-5.3h15v14.9c-3.4 2.9-8.4 5.5-14.7 5.5-10.9 0-18.1-7.9-18.1-18.2M1104.1 780.7h6.1V816h-6.1zM1142.6 780.7v24.5l-19-24.5h-5.7v35.4h6.1V791l19.5 25.1h5.2v-35.4zM1156.2 780.7v35.4h26.3v-5.6h-20.1v-9.4h17.7v-5.6h-17.7v-9.1h19.9v-5.7zM1188.2 780.7v35.4h26.5v-5.6h-20.2v-9.4h17.7v-5.6h-17.7v-9.1h20v-5.7zM1235.7 798.3c4.4 0 7.3-2.4 7.3-6v-.1c0-3.8-2.7-5.8-7.3-5.8h-9.1v11.9h9.1zm-15.3-17.6h15.7c4.4 0 7.9 1.3 10.2 3.6 1.8 1.9 2.9 4.6 2.9 7.6v.2c0 5.8-3.6 9.2-8.5 10.7l9.6 13.4h-7.3l-8.7-12.3H1226.6v12.3h-6.2v-35.5zM1255.5 780.7h6.3V816h-6.3zM1294.2 780.7v24.5l-18.9-24.5h-5.8v35.4h6.1V791l19.4 25.1h5.2v-35.4zM1306.1 798.5v-.2c0-9.8 7.5-18.3 18.3-18.3 6.1 0 9.9 1.8 13.5 4.8l-4 4.7c-2.7-2.4-5.3-3.8-9.9-3.8-6.6 0-11.4 5.7-11.4 12.5v.1c0 7.4 4.7 12.7 11.9 12.7 3.2 0 6.4-1 8.6-2.8v-6.6h-9.1v-5.3h15v14.9c-3.4 2.9-8.4 5.5-14.7 5.5-10.9 0-18.2-7.9-18.2-18.2M689.3 700.8h13.6v62h-13.6zM715.3 700.8h12.6l29.1 38.1v-38.1h13.4v61.9h-11.5l-30.1-39.3v39.3h-13.5zM782.2 700.8h12.6l28.9 38.1v-38.1h13.6v61.9h-11.6l-30-39.3v39.3h-13.5zM898 732v-.2c0-10.6-7.8-19.4-18.9-19.4-11 0-18.5 8.6-18.5 19.2v.2c0 10.6 7.8 19.4 18.8 19.4 10.9 0 18.6-8.6 18.6-19.2m-51.7 0v-.2c0-17.6 13.9-32 33-32s32.8 14.2 32.8 31.8v.2c0 17.6-13.9 32.1-33.1 32.1-18.9-.1-32.7-14.3-32.7-31.9M915.8 700.8H931l16.2 43.7 16.1-43.7h14.8L953 763.2h-12.1zM1020.1 736.8l-8.3-20.1-8.3 20.1h16.6zm-14.3-36.4h12.5l26.5 62.3h-14.2l-5.7-13.8h-26.2l-5.6 13.8h-13.9l26.6-62.3zM1065.8 713.3h-18.9v-12.5h51.4v12.5h-18.8v49.4h-13.7zM1106.2 700.8h13.7v62h-13.7zM1181.1 732v-.2c0-10.6-7.7-19.4-18.8-19.4-10.9 0-18.6 8.6-18.6 19.2v.2c0 10.6 7.8 19.4 18.8 19.4s18.6-8.6 18.6-19.2m-51.6 0v-.2c0-17.6 13.9-32 33.1-32 19.1 0 32.8 14.2 32.8 31.8v.2c0 17.6-13.9 32.1-33 32.1-19.1-.1-32.9-14.3-32.9-31.9M1204.4 700.8h12.7l29 38.1v-38.1h13.5v61.9h-11.7l-29.9-39.3v39.3h-13.6zM1267 753.7l8.1-9.7c5.5 4.6 11.4 7.5 18.4 7.5 5.6 0 9.1-2.2 9.1-5.8v-.2c0-3.5-2.2-5.2-12.5-7.9-12.5-3.1-20.6-6.6-20.6-18.9v-.2c0-11.3 9.1-18.7 21.7-18.7 9 0 16.7 2.8 23 7.8l-7.1 10.4c-5.5-3.9-10.9-6.2-16.1-6.2-5.2 0-8 2.4-8 5.4v.2c0 4.1 2.7 5.4 13.4 8.2 12.5 3.3 19.6 7.8 19.6 18.5v.2c0 12.3-9.3 19.2-22.8 19.2-9.2.2-18.7-3.2-26.2-9.8M860.5 864l-7.1-17.2-7.1 17.2h14.2zm-12.3-31.3H859l22.7 53.5h-12.3l-4.9-12h-22.4l-4.9 12h-11.8l22.8-53.5zM883.2 833.1h12.5l10.9 36 12-36.1h10l11.9 36.1 11.1-36h12.1l-18.1 53.6h-10.2l-11.9-34.8-12.1 34.8h-10.1zM1000.3 864l-7.1-17.2-7.1 17.2h14.2zM988 832.7h10.8l22.8 53.5h-12.2l-4.9-12H982l-4.9 12h-11.9l22.8-53.5zM1050.6 858.9c5.7 0 8.9-2.9 8.9-7.4v-.2c0-5-3.5-7.5-9.1-7.5h-11.6V859h11.8zm-23.6-25.8h24.3c6.8 0 12 1.9 15.5 5.5 2.9 3 4.5 7.1 4.5 12.1v.2c0 8.6-4.5 14-11.4 16.4l13.1 19h-13.7l-11.5-17h-9.1v17H1027v-53.2zM1100 875.7c9.6 0 16-6.5 16-15.8v-.2c0-9.4-6.4-16-16-16h-9v32h9zm-20.7-42.6h20.7c16.7 0 28.3 11.5 28.3 26.4v.2c0 14.9-11.6 26.5-28.3 26.5h-20.7v-53.1zM1132.4 878.5l7-8.3c4.7 3.9 9.7 6.4 15.8 6.4 4.8 0 7.6-1.9 7.6-5v-.2c0-2.9-1.8-4.5-10.7-6.7-10.6-2.8-17.5-5.7-17.5-16.3v-.1c0-9.7 7.6-16 18.5-16 7.8 0 14.4 2.4 19.7 6.8l-6 8.8c-4.8-3.3-9.4-5.2-13.9-5.2s-6.8 2-6.8 4.6v.2c0 3.4 2.3 4.7 11.5 7 10.7 2.9 16.8 6.7 16.8 16 0 10.7-8 16.5-19.6 16.5-8-.1-16.1-2.7-22.4-8.5"/><path d="M1115.7 428.3c0 64.3-52.2 116.5-116.7 116.5-64.2 0-116.4-52.2-116.4-116.5 0-64.4 52.2-116.5 116.4-116.5 64.4 0 116.7 52.1 116.7 116.5" clip-path="url(#SVGID_2_)" fill="#f8e91a"/><path d="M1088.1 581.6c0 6.8-39.9 12.4-89 12.4-49.2 0-88.9-5.6-88.9-12.4 0-6.9 39.8-12.4 88.9-12.4 49.1 0 89 5.5 89 12.4" clip-path="url(#SVGID_2_)" fill="#8e8132"/></g></svg>