<svg id="Слой_1" xmlns="http://www.w3.org/2000/svg" xmlns:xlink="http://www.w3.org/1999/xlink" viewBox="0 0 2000 2000"><style>.st0{clip-path:url(#SVGID_2_);fill:#d02629}.st1{fill:#424554}</style><defs><path id="SVGID_1_" d="M0 0h2000v2000H0z"/></defs><clipPath id="SVGID_2_"><use xlink:href="#SVGID_1_" overflow="visible"/></clipPath><path class="st0" d="M1000 222.5c-284.7 0-515.5 230.8-515.5 515.5M1000.1 1253.5L484.5 738c0 284.8 230.8 515.5 515.6 515.5M1128.9 351.3L742.3 738 1000 995.8 1257.8 738l-64.4-64.3-129 128.8-128.9-128.8 257.9-257.9"/><path class="st0" d="M1193.4 415.8l322.2 322.1c0-284.7-231-515.5-515.6-515.5M1000.1 1253.5c284.6 0 515.4-230.8 515.4-515.5l-515.4 515.5z"/><g><path class="st1" d="M540.9 1501.2c-7.3 2.6-21.7 6.9-38.7 6.9-19 0-34.7-4.9-47.1-16.6-10.8-10.5-17.6-27.3-17.6-46.9.2-37.5 26-65 68.2-65 14.6 0 26 3.2 31.4 5.8l-3.9 13.3c-6.7-3-15.1-5.4-27.8-5.4-30.6 0-50.6 19-50.6 50.6 0 31.9 19.2 50.8 48.5 50.8 10.6 0 17.9-1.5 21.7-3.4v-37.5h-25.6v-13.1h41.5v60.5zM673.3 1442.6c0 43.3-26.3 66.3-58.4 66.3-33.2 0-56.6-25.8-56.6-63.9 0-40 24.8-66.1 58.4-66.1 34.3 0 56.6 26.3 56.6 63.7zm-97.7 2c0 26.9 14.6 51 40.1 51 25.8 0 40.3-23.7 40.3-52.3 0-25-13.1-51.2-40.1-51.2-26.9 0-40.3 24.9-40.3 52.5zM801.9 1442.6c0 43.3-26.3 66.3-58.4 66.3-33.2 0-56.6-25.8-56.6-63.9 0-40 24.8-66.1 58.4-66.1 34.4 0 56.6 26.3 56.6 63.7zm-97.7 2c0 26.9 14.6 51 40.1 51 25.8 0 40.3-23.7 40.3-52.3 0-25-13.1-51.2-40.1-51.2-26.8 0-40.3 24.9-40.3 52.5zM823 1382.6c9.9-1.5 21.7-2.6 34.5-2.6 23.3 0 40 5.4 51 15.7 11.2 10.3 17.7 24.8 17.7 45.2 0 20.5-6.3 37.3-18.1 48.9-11.8 11.8-31.2 18.1-55.6 18.1-11.6 0-21.3-.6-29.5-1.5v-123.8zm16.2 111.3c4.1.7 10.1.9 16.4.9 34.7 0 53.6-19.4 53.6-53.4.2-29.7-16.6-48.5-51-48.5-8.4 0-14.8.7-19 1.7v99.3zM986.9 1382.6c9.9-1.5 21.7-2.6 34.5-2.6 23.3 0 40 5.4 51 15.7 11.2 10.3 17.7 24.8 17.7 45.2 0 20.5-6.3 37.3-18.1 48.9-11.8 11.8-31.2 18.1-55.6 18.1-11.6 0-21.3-.6-29.5-1.5v-123.8zm16.3 111.3c4.1.7 10.1.9 16.4.9 34.7 0 53.6-19.4 53.6-53.4.2-29.7-16.6-48.5-51-48.5-8.4 0-14.8.7-19 1.7v99.3zM1176.4 1447.8h-48.9v45.4h54.5v13.6h-70.8v-125.9h68v13.6h-51.7v39.8h48.9v13.5zM1200.9 1487c7.3 4.5 17.9 8.2 29.1 8.2 16.6 0 26.3-8.8 26.3-21.5 0-11.8-6.7-18.5-23.7-25-20.5-7.3-33.2-17.9-33.2-35.7 0-19.6 16.2-34.2 40.7-34.2 12.9 0 22.2 3 27.8 6.2l-4.5 13.3c-4.1-2.2-12.5-6-23.9-6-17.2 0-23.7 10.3-23.7 18.9 0 11.8 7.7 17.6 25 24.3 21.3 8.2 32.1 18.5 32.1 37 0 19.4-14.4 36.2-44.1 36.2-12.1 0-25.4-3.5-32.1-8l4.2-13.7zM1311.4 1380.9v125.9h-16.2v-125.9h16.2zM1435.6 1501.2c-7.3 2.6-21.7 6.9-38.7 6.9-19 0-34.7-4.9-47.1-16.6-10.8-10.5-17.6-27.3-17.6-46.9.2-37.5 26-65 68.2-65 14.6 0 26 3.2 31.4 5.8l-3.9 13.3c-6.7-3-15.1-5.4-27.8-5.4-30.6 0-50.6 19-50.6 50.6 0 31.9 19.2 50.8 48.5 50.8 10.6 0 17.9-1.5 21.7-3.4v-37.5h-25.6v-13.1h41.5v60.5zM1460.4 1506.8v-125.9h17.7l40.3 63.7c9.3 14.8 16.6 28 22.6 40.9l.4-.2c-1.5-16.8-1.9-32.1-1.9-51.7v-52.7h15.3v125.9h-16.4l-40-63.9c-8.8-14-17.2-28.4-23.5-42l-.6.2c.9 15.9 1.3 31 1.3 51.9v53.8h-15.2z"/></g><g><path class="st1" d="M728.9 1691.3l-13.1 39.6H699l42.8-125.9h19.6l42.9 125.9H787l-13.4-39.6h-44.7zm41.3-12.7l-12.3-36.2c-2.8-8.2-4.7-15.7-6.5-23h-.4c-1.9 7.5-3.9 15.1-6.3 22.8l-12.3 36.4h37.8zM843.4 1730.8l-32-125.8h17.2l14.9 63.7c3.7 15.7 7.1 31.4 9.3 43.5h.4c2.1-12.5 6-27.4 10.3-43.7l16.8-63.5h17l15.3 63.9c3.5 14.9 6.9 29.9 8.8 43.1h.4c2.6-13.8 6.2-27.8 10.1-43.5l16.6-63.5h16.6l-35.7 125.9h-17l-15.9-65.5c-3.9-16.1-6.5-28.4-8.2-41.1h-.3c-2.2 12.5-5 24.8-9.7 41.1l-17.9 65.5h-17zM1001.1 1691.3l-13.1 39.6h-16.8L1014 1605h19.6l42.9 125.9h-17.4l-13.4-39.6h-44.6zm41.3-12.7l-12.3-36.2c-2.8-8.2-4.7-15.7-6.5-23h-.4c-1.9 7.5-3.9 15.1-6.3 22.8l-12.3 36.4h37.8zM1095 1606.7c8.2-1.7 20-2.6 31.2-2.6 17.4 0 28.6 3.2 36.4 10.3 6.3 5.6 9.9 14.2 9.9 23.9 0 16.6-10.5 27.6-23.7 32.1v.6c9.7 3.4 15.5 12.3 18.5 25.4 4.1 17.6 7.1 29.7 9.7 34.5h-16.8c-2.1-3.5-4.9-14.4-8.4-30.1-3.7-17.4-10.5-23.9-25.2-24.5h-15.3v54.5H1095v-124.1zm16.3 57.3h16.6c17.4 0 28.4-9.5 28.4-23.9 0-16.2-11.8-23.3-28.9-23.5-7.8 0-13.4.7-16.1 1.5v45.9z"/></g><g><path class="st1" d="M1194.9 1606.7c9.9-1.5 21.7-2.6 34.5-2.6 23.3 0 40 5.4 51 15.7 11.2 10.3 17.7 24.8 17.7 45.2 0 20.5-6.3 37.3-18.1 48.9-11.8 11.8-31.2 18.1-55.6 18.1-11.6 0-21.3-.6-29.5-1.5v-123.8zm16.3 111.3c4.1.7 10.1.9 16.4.9 34.7 0 53.6-19.4 53.6-53.4.2-29.7-16.6-48.5-51-48.5-8.4 0-14.8.7-19 1.7v99.3z"/></g></svg>