<svg id="Слой_1" xmlns="http://www.w3.org/2000/svg" viewBox="0 0 2000 2000"><style>.st0{fill:#424554}</style><path class="st0" d="M854.2 1497.5c-7.3 2.6-21.7 6.9-38.7 6.9-19 0-34.7-4.9-47.1-16.6-10.8-10.5-17.6-27.3-17.6-46.9.2-37.5 26-65 68.2-65 14.6 0 26 3.2 31.4 5.8l-3.9 13.3c-6.7-3-15.1-5.4-27.8-5.4-30.6 0-50.6 19-50.6 50.6 0 31.9 19.2 50.8 48.5 50.8 10.6 0 17.9-1.5 21.7-3.4v-37.5h-25.6V1437h41.5v60.5zM899.4 1463.5l-13.1 39.6h-16.8l42.8-125.9h19.6l42.9 125.9h-17.4l-13.4-39.6h-44.6zm41.2-12.7l-12.3-36.2c-2.8-8.2-4.7-15.7-6.5-23h-.4c-1.9 7.5-3.9 15.1-6.3 22.8l-12.3 36.4h37.8zM1017.2 1391.1h-38.3v-13.8h93.2v13.8h-38.5v112h-16.4v-112zM1151.2 1444.1h-48.9v45.4h54.5v13.6H1086v-125.9h68v13.6h-51.7v39.8h48.9v13.5zM1175.7 1483.3c7.3 4.5 17.9 8.2 29.1 8.2 16.6 0 26.3-8.8 26.3-21.5 0-11.8-6.7-18.5-23.7-25-20.5-7.3-33.2-17.9-33.2-35.7 0-19.6 16.2-34.2 40.7-34.2 12.9 0 22.2 3 27.8 6.2l-4.5 13.3c-4.1-2.2-12.5-6-23.9-6-17.2 0-23.7 10.3-23.7 18.9 0 11.8 7.7 17.6 25 24.3 21.3 8.2 32.1 18.5 32.1 37 0 19.4-14.4 36.2-44.1 36.2-12.1 0-25.4-3.5-32.1-8l4.2-13.7zM683 1687.6l-13.1 39.6h-16.8l42.8-125.9h19.6l42.9 125.9H741l-13.4-39.6H683zm41.2-12.7l-12.3-36.2c-2.8-8.2-4.7-15.7-6.5-23h-.4c-1.9 7.5-3.9 15.1-6.3 22.8l-12.3 36.4h37.8zM797.4 1727.1l-31.9-125.9h17.2l14.9 63.7c3.7 15.7 7.1 31.4 9.3 43.5h.4c2.1-12.5 6-27.4 10.3-43.7l16.8-63.5h17l15.3 63.9c3.5 14.9 6.9 29.9 8.8 43.1h.4c2.6-13.8 6.2-27.8 10.1-43.5l16.6-63.5h16.6l-35.7 125.9h-17l-15.9-65.5c-3.9-16.1-6.5-28.4-8.2-41.1h-.4c-2.2 12.5-5 24.8-9.7 41.1l-17.9 65.5h-17zM955.2 1687.6l-13.1 39.6h-16.8l42.8-125.9h19.6l42.9 125.9h-17.4l-13.4-39.6h-44.6zm41.3-12.7l-12.3-36.2c-2.8-8.2-4.7-15.7-6.5-23h-.4c-1.9 7.5-3.9 15.1-6.3 22.8l-12.3 36.4h37.8zM1049.1 1603c8.2-1.7 20-2.6 31.2-2.6 17.4 0 28.6 3.2 36.4 10.3 6.3 5.6 9.9 14.2 9.9 23.9 0 16.6-10.5 27.6-23.7 32.1v.6c9.7 3.4 15.5 12.3 18.5 25.4 4.1 17.6 7.1 29.7 9.7 34.5h-16.8c-2.1-3.5-4.9-14.4-8.4-30.1-3.7-17.4-10.5-23.9-25.2-24.5h-15.3v54.5h-16.2V1603zm16.3 57.3h16.6c17.4 0 28.4-9.5 28.4-23.9 0-16.2-11.8-23.3-28.9-23.5-7.8 0-13.4.7-16.1 1.5v45.9zM1149.6 1603c9.9-1.5 21.7-2.6 34.5-2.6 23.3 0 40 5.4 51 15.7 11.2 10.3 17.7 24.8 17.7 45.2 0 20.5-6.3 37.3-18.1 48.9-11.8 11.8-31.2 18.1-55.6 18.1-11.6 0-21.3-.6-29.5-1.5V1603zm16.2 111.3c4.1.7 10.1.9 16.4.9 34.7 0 53.6-19.4 53.6-53.4.2-29.7-16.6-48.5-51-48.5-8.4 0-14.8.7-19 1.7v99.3zM1271.7 1707.4c7.3 4.5 17.9 8.2 29.1 8.2 16.6 0 26.3-8.8 26.3-21.5 0-11.8-6.7-18.5-23.7-25-20.5-7.3-33.2-17.9-33.2-35.7 0-19.6 16.2-34.2 40.7-34.2 12.9 0 22.2 3 27.8 6.2l-4.5 13.3c-4.1-2.2-12.5-6-23.9-6-17.2 0-23.7 10.3-23.7 18.9 0 11.8 7.7 17.6 25 24.3 21.3 8.2 32.1 18.5 32.1 37 0 19.4-14.4 36.2-44.1 36.2-12.1 0-25.4-3.5-32.1-8l4.2-13.7z"/><path fill="#dd1f26" d="M623.7 596.7h215.9v646.9H623.7z"/><path fill="#f7971d" d="M1160.7 915.4v113.2H838v214.6h322.7v.4h215.6V915.4z"/><path fill="#026fb7" d="M623.7 387.4h751.4v211.4H623.7z"/><path fill="#009649" d="M944.7 707.1h431.7v211.4H944.7z"/></svg>