<svg id="Слой_1" xmlns="http://www.w3.org/2000/svg" viewBox="0 0 2000 2000"><style>.st2{fill:#424554}</style><path d="M563.6 776.7L789 1171.4l18-253-243.4-141.7zm239.3 426.1L1242.2 933l-420.1-14.8-19.2 284.6zm191.9-474.6L828.9 903.4l394.6 13.4-228.7-188.6zM745.4 525.5l-209-175.6 24.7 408.8 184.3-233.2zm-427 303.1l473.2 383.5-245.4-435.7-227.8 52.2zm202.1-489.4L325.6 810.7 546.2 761l-25.7-421.8z" fill="#fdbd2a"/><path d="M1254.7 922.9l209 175.5-24.9-408.6-184.1 233.1zm199-235.5l25.7 421.9 194.8-471.5-220.5 49.6zm-451 30.4L1171 545l-394.5-13.3 226.2 186.1zM1192.9 530l243.3 141.7L1210.9 277l-18 253zm-435.1-14.5l420 14.7 19.3-284.5-439.3 269.8zM1453.7 672l227.9-52.3-473.3-383.4L1453.7 672z" fill="#5f5e5e"/><path class="st2" d="M652.9 1488.9c-6 3-17.9 6-33.2 6-35.5 0-62.2-22.4-62.2-63.7 0-39.4 26.7-66.1 65.7-66.1 15.7 0 25.6 3.4 29.9 5.6l-3.9 13.3c-6.2-3-14.9-5.2-25.4-5.2-29.5 0-49.1 18.9-49.1 51.9 0 30.8 17.7 50.6 48.4 50.6 9.9 0 20-2.1 26.5-5.2l3.3 12.8zM780.8 1428.7c0 43.3-26.3 66.3-58.4 66.3-33.2 0-56.6-25.8-56.6-63.9 0-40 24.8-66.1 58.4-66.1 34.4.1 56.6 26.4 56.6 63.7zm-97.7 2.1c0 26.9 14.6 51 40.1 51 25.8 0 40.3-23.7 40.3-52.3 0-25-13.1-51.2-40.1-51.2-26.8 0-40.3 24.9-40.3 52.5zM907.9 1437.7c-.9-17.6-2.1-38.7-1.9-54.3h-.6c-4.3 14.8-9.5 30.4-15.9 47.8l-22.2 61.1H855l-20.4-59.9c-6-17.7-11-34-14.6-48.9h-.4c-.4 15.7-1.3 36.8-2.4 55.6l-3.4 54h-15.5l8.8-125.9H828l21.5 60.9c5.2 15.5 9.5 29.3 12.7 42.4h.6c3.2-12.7 7.7-26.5 13.3-42.4l22.4-60.9h20.7L927 1493h-15.9l-3.2-55.3zM952 1368.6c7.8-1.3 18.1-2.4 31.2-2.4 16.1 0 27.8 3.7 35.3 10.5 6.9 6 11 15.1 11 26.3 0 11.4-3.4 20.4-9.7 26.9-8.6 9.1-22.6 13.8-38.5 13.8-4.9 0-9.3-.2-13.1-1.1v50.4H952v-124.4zm16.2 60.7c3.5.9 8 1.3 13.4 1.3 19.6 0 31.6-9.5 31.6-26.9 0-16.6-11.8-24.6-29.7-24.6-7.1 0-12.5.6-15.3 1.3v48.9zM1067.6 1367.1v74.5c0 28.2 12.5 40.1 29.3 40.1 18.7 0 30.6-12.3 30.6-40.1v-74.5h16.4v73.4c0 38.7-20.4 54.5-47.6 54.5-25.8 0-45.2-14.8-45.2-53.8v-74.1h16.5zM1196 1380.9h-38.3v-13.8h93.2v13.8h-38.5v112H1196v-112zM1330.1 1434h-48.9v45.4h54.5v13.6h-70.8v-125.9h68v13.6h-51.7v39.8h48.9v13.5zM1425.7 1493l-16.1-27.8c-6.5-10.6-10.6-17.6-14.6-24.8h-.4c-3.5 7.3-7.1 14-13.6 25l-15.1 27.6h-18.7l38.5-63.7-37-62.2h18.9l16.6 29.5c4.7 8.2 8.2 14.6 11.6 21.3h.6c3.5-7.5 6.7-13.3 11.4-21.3l17.2-29.5h18.7l-38.3 61.2 39.2 64.6h-18.9z"/><g><path class="st2" d="M501.7 1592.9c9.9-1.5 21.7-2.6 34.5-2.6 23.3 0 40 5.4 51 15.7 11.2 10.3 17.7 24.8 17.7 45.2 0 20.5-6.3 37.3-18.1 48.9-11.8 11.8-31.2 18.1-55.6 18.1-11.6 0-21.3-.6-29.5-1.5v-123.8zm16.2 111.3c4.1.7 10.1.9 16.4.9 34.7 0 53.6-19.4 53.6-53.4.2-29.7-16.6-48.5-51-48.5-8.4 0-14.8.7-19 1.7v99.3zM704.8 1717c-3.5-3.5-6.9-7.1-11.8-12.3-10.8 10.1-23 14.4-36.8 14.4-24.5 0-38.7-16.4-38.7-35.3 0-17.2 10.3-28.9 24.6-36.8v-.6c-6.5-8.2-10.5-17.4-10.5-26.3 0-15.3 11-31 31.9-31 15.7 0 27.8 10.5 27.8 26.7 0 13.3-7.7 23.7-27.6 33.6v.6c10.6 12.3 22.6 26.1 30.6 35.1 5.8-8.8 9.7-20.9 12.1-36.8h14.9c-3.4 19.8-8.8 35.5-18.1 46.5 6.7 7.1 13.3 14.2 20.7 22.2h-19.1zm-19.8-21.6c-7.5-8.2-21.5-23.5-35.5-39.6-6.7 4.3-16.2 12.3-16.2 25.6 0 14.4 10.6 25.4 25.8 25.4 10.8 0 19.9-4.9 25.9-11.4zm-38.3-76.8c0 9 4.1 15.9 9.5 22.6 12.7-7.3 20.9-14 20.9-24.6 0-7.7-4.3-16.2-14.6-16.2-10.4-.1-15.8 8.5-15.8 18.2zM755.2 1591.2V1717H739v-125.9h16.2zM843.5 1677.5l-13.1 39.6h-16.8l42.8-125.9H876l43 125.8h-17.4l-13.4-39.6h-44.7zm41.3-12.7l-12.3-36.2c-2.8-8.2-4.7-15.7-6.5-23h-.4c-1.9 7.5-3.9 15.1-6.3 22.8l-12.3 36.4h37.8zM958 1717l-31.9-125.9h17.2l14.9 63.7c3.7 15.7 7.1 31.4 9.3 43.5h.4c2.1-12.5 6-27.4 10.3-43.7l16.8-63.5h17l15.3 63.9c3.5 14.9 6.9 29.9 8.8 43.1h.4c2.6-13.8 6.2-27.8 10.1-43.5l16.6-63.5h16.6l-35.7 125.9h-17l-15.9-65.5c-3.9-16.1-6.5-28.4-8.2-41.1h-.4c-2.2 12.5-5 24.8-9.7 41.1L975 1717h-17zM1115.8 1677.5l-13.1 39.6h-16.8l42.8-125.9h19.6l42.9 125.9h-17.4l-13.4-39.6h-44.6zm41.2-12.7l-12.3-36.2c-2.8-8.2-4.7-15.7-6.5-23h-.4c-1.9 7.5-3.9 15.1-6.3 22.8l-12.3 36.4h37.8zM1209.7 1592.9c8.2-1.7 20-2.6 31.2-2.6 17.4 0 28.6 3.2 36.4 10.3 6.3 5.6 9.9 14.2 9.9 23.9 0 16.6-10.5 27.6-23.7 32.1v.6c9.7 3.4 15.5 12.3 18.5 25.4 4.1 17.6 7.1 29.7 9.7 34.5h-16.8c-2.1-3.5-4.9-14.4-8.4-30.1-3.7-17.4-10.5-23.9-25.2-24.5H1226v54.5h-16.2v-124.1zm16.2 57.3h16.6c17.4 0 28.4-9.5 28.4-23.9 0-16.2-11.8-23.3-28.9-23.5-7.8 0-13.4.7-16.1 1.5v45.9zM1310.1 1592.9c9.9-1.5 21.7-2.6 34.5-2.6 23.3 0 40 5.4 51 15.7 11.2 10.3 17.7 24.8 17.7 45.2 0 20.5-6.3 37.3-18.1 48.9-11.8 11.8-31.2 18.1-55.6 18.1-11.6 0-21.3-.6-29.5-1.5v-123.8zm16.3 111.3c4.1.7 10.1.9 16.4.9 34.7 0 53.6-19.4 53.6-53.4.2-29.7-16.6-48.5-51-48.5-8.4 0-14.8.7-19 1.7v99.3z"/></g><g><path class="st2" d="M1431.1 1697.2c7.3 4.5 17.9 8.2 29.1 8.2 16.6 0 26.3-8.8 26.3-21.5 0-11.8-6.7-18.5-23.7-25-20.5-7.3-33.2-17.9-33.2-35.7 0-19.6 16.2-34.2 40.7-34.2 12.9 0 22.2 3 27.8 6.2l-4.5 13.3c-4.1-2.2-12.5-6-23.9-6-17.2 0-23.7 10.3-23.7 18.9 0 11.8 7.7 17.6 25 24.3 21.3 8.2 32.1 18.5 32.1 37 0 19.4-14.4 36.2-44.1 36.2-12.1 0-25.4-3.5-32.1-8l4.2-13.7z"/></g></svg>