<svg id="Слой_1" xmlns="http://www.w3.org/2000/svg" xmlns:xlink="http://www.w3.org/1999/xlink" viewBox="0 0 2000 2000"><style>.st0{fill:#424554}.st3,.st6,.st7{clip-path:url(#SVGID_2_);fill:#1d9dd9}.st6,.st7{fill:#fff}.st7{fill:#f1f1f2}</style><path class="st0" d="M418 1378.9c7.1-1.5 18.3-2.6 29.7-2.6 16.2 0 26.7 2.8 34.5 9.1 6.5 4.9 10.5 12.3 10.5 22.2 0 12.1-8 22.8-21.3 27.6v.4c12 3 26 12.9 26 31.6 0 10.8-4.3 19-10.6 25.2-8.8 8-23 11.8-43.5 11.8-11.2 0-19.8-.7-25.2-1.5v-123.8zm16.3 51.6H449c17.2 0 27.3-9 27.3-21.1 0-14.8-11.2-20.5-27.6-20.5-7.5 0-11.8.6-14.4 1.1v40.5zm0 60.3c3.2.6 7.8.7 13.6.7 16.8 0 32.3-6.2 32.3-24.5 0-17.2-14.8-24.3-32.5-24.3h-13.4v48.1zM584.4 1444.1h-48.9v45.4H590v13.6h-70.8v-125.9h68v13.6h-51.7v39.8h48.9v13.5zM608.8 1483.3c7.3 4.5 17.9 8.2 29.1 8.2 16.6 0 26.3-8.8 26.3-21.5 0-11.8-6.7-18.5-23.7-25-20.5-7.3-33.2-17.9-33.2-35.7 0-19.6 16.2-34.2 40.7-34.2 12.9 0 22.2 3 27.8 6.2l-4.5 13.3c-4.1-2.2-12.5-6-23.9-6-17.2 0-23.7 10.3-23.7 18.9 0 11.8 7.7 17.6 25 24.3 21.3 8.2 32.1 18.5 32.1 37 0 19.4-14.4 36.2-44.1 36.2-12.1 0-25.4-3.5-32.1-8l4.2-13.7zM727 1391.1h-38.3v-13.8h93.2v13.8h-38.5v112H727v-112zM835.5 1378.7c7.8-1.3 18.1-2.4 31.2-2.4 16.1 0 27.8 3.7 35.3 10.5 6.9 6 11 15.1 11 26.3 0 11.4-3.4 20.4-9.7 26.9-8.6 9.1-22.6 13.8-38.5 13.8-4.9 0-9.3-.2-13.1-1.1v50.4h-16.2v-124.4zm16.3 60.7c3.5.9 8 1.3 13.4 1.3 19.6 0 31.6-9.5 31.6-26.9 0-16.6-11.8-24.6-29.7-24.6-7.1 0-12.5.6-15.3 1.3v48.9zM934.8 1378.9c8.2-1.7 20-2.6 31.2-2.6 17.4 0 28.6 3.2 36.4 10.3 6.3 5.6 9.9 14.2 9.9 23.9 0 16.6-10.5 27.6-23.7 32.1v.6c9.7 3.4 15.5 12.3 18.5 25.4 4.1 17.6 7.1 29.7 9.7 34.5H1000c-2.1-3.5-4.9-14.4-8.4-30.1-3.7-17.4-10.5-23.9-25.2-24.5h-15.3v54.5h-16.2v-124.1zm16.3 57.3h16.6c17.4 0 28.4-9.5 28.4-23.9 0-16.2-11.8-23.3-28.9-23.5-7.8 0-13.4.7-16.1 1.5v45.9zM1142.8 1438.9c0 43.3-26.3 66.3-58.4 66.3-33.2 0-56.6-25.8-56.6-63.9 0-40 24.8-66.1 58.4-66.1 34.4 0 56.6 26.3 56.6 63.7zm-97.6 2c0 26.9 14.6 51 40.1 51 25.8 0 40.3-23.7 40.3-52.3 0-25-13.1-51.2-40.1-51.2-26.9 0-40.3 24.9-40.3 52.5zM1163.9 1378.9c9.9-1.5 21.7-2.6 34.5-2.6 23.3 0 40 5.4 51 15.7 11.2 10.3 17.7 24.8 17.7 45.2 0 20.5-6.3 37.3-18.1 48.9-11.8 11.8-31.2 18.1-55.6 18.1-11.6 0-21.3-.6-29.5-1.5v-123.8zm16.3 111.3c4.1.7 10.1.9 16.4.9 34.7 0 53.6-19.4 53.6-53.4.2-29.7-16.6-48.5-51-48.5-8.4 0-14.8.7-19 1.7v99.3zM1304.5 1377.2v74.5c0 28.2 12.5 40.1 29.3 40.1 18.7 0 30.6-12.3 30.6-40.1v-74.5h16.4v73.4c0 38.7-20.4 54.5-47.6 54.5-25.8 0-45.2-14.8-45.2-53.8v-74.1h16.5zM1497 1499c-6 3-17.9 6-33.2 6-35.5 0-62.2-22.4-62.2-63.7 0-39.4 26.7-66.1 65.7-66.1 15.7 0 25.6 3.4 29.9 5.6l-3.9 13.3c-6.2-3-14.9-5.2-25.4-5.2-29.5 0-49.1 18.9-49.1 51.9 0 30.8 17.7 50.6 48.4 50.6 9.9 0 20-2.1 26.5-5.2l3.3 12.8zM1541.3 1391.1H1503v-13.8h93.2v13.8h-38.5v112h-16.4v-112z"/><g><path class="st0" d="M390.6 1603c9.9-1.5 21.7-2.6 34.5-2.6 23.3 0 40 5.4 51 15.7 11.2 10.3 17.7 24.8 17.7 45.2 0 20.5-6.3 37.3-18.1 48.9-11.8 11.8-31.2 18.1-55.6 18.1-11.6 0-21.3-.6-29.5-1.5V1603zm16.2 111.3c4.1.7 10.1.9 16.4.9 34.7 0 53.6-19.4 53.6-53.4.2-29.7-16.6-48.5-51-48.5-8.4 0-14.8.7-19 1.7v99.3zM580.1 1668.1h-48.9v45.4h54.5v13.6h-70.8v-125.9h68v13.6h-51.7v39.8h48.9v13.5zM604.5 1707.4c7.3 4.5 17.9 8.2 29.1 8.2 16.6 0 26.3-8.8 26.3-21.5 0-11.8-6.7-18.5-23.7-25-20.5-7.3-33.2-17.9-33.2-35.7 0-19.6 16.2-34.2 40.7-34.2 12.9 0 22.2 3 27.8 6.2l-4.5 13.3c-4.1-2.2-12.5-6-23.9-6-17.2 0-23.7 10.3-23.7 18.9 0 11.8 7.7 17.6 25 24.3 21.3 8.2 32.1 18.5 32.1 37 0 19.4-14.4 36.2-44.1 36.2-12.1 0-25.4-3.5-32.1-8l4.2-13.7zM715.1 1601.3v125.9h-16.2v-125.9h16.2zM839.2 1721.5c-7.3 2.6-21.7 6.9-38.7 6.9-19 0-34.7-4.9-47.1-16.6-10.8-10.5-17.6-27.3-17.6-46.9.2-37.5 26-65 68.2-65 14.6 0 26 3.2 31.4 5.8l-3.9 13.3c-6.7-3-15.1-5.4-27.8-5.4-30.6 0-50.6 19-50.6 50.6 0 31.9 19.2 50.8 48.5 50.8 10.6 0 17.9-1.5 21.7-3.4v-37.5h-25.6V1661h41.5v60.5zM864.1 1727.1v-125.9h17.7l40.3 63.7c9.3 14.8 16.6 28 22.6 40.9l.4-.2c-1.5-16.8-1.9-32.1-1.9-51.7v-52.7h15.3v125.9h-16.4l-40-63.9c-8.8-14-17.2-28.4-23.5-42l-.6.2c.9 15.9 1.3 31 1.3 51.9v53.8h-15.2zM1046.9 1687.6l-13.1 39.6H1017l42.8-125.9h19.6l42.9 125.9h-17.4l-13.4-39.6h-44.6zm41.2-12.7l-12.3-36.2c-2.8-8.2-4.7-15.7-6.5-23h-.4c-1.9 7.5-3.9 15.1-6.3 22.8l-12.3 36.4h37.8zM1161.3 1727.1l-31.9-125.9h17.2l14.9 63.7c3.7 15.7 7.1 31.4 9.3 43.5h.4c2.1-12.5 6-27.4 10.3-43.7l16.8-63.5h17l15.3 63.9c3.5 14.9 6.9 29.9 8.8 43.1h.4c2.6-13.8 6.2-27.8 10.1-43.5l16.6-63.5h16.6l-35.7 125.9h-17l-15.9-65.5c-3.9-16.1-6.5-28.4-8.2-41.1h-.4c-2.2 12.5-5 24.8-9.7 41.1l-17.9 65.5h-17zM1319.1 1687.6l-13.1 39.6h-16.8l42.8-125.9h19.6l42.9 125.9h-17.4l-13.4-39.6h-44.6zm41.3-12.7l-12.3-36.2c-2.8-8.2-4.7-15.7-6.5-23h-.4c-1.9 7.5-3.9 15.1-6.3 22.8l-12.3 36.4h37.8zM1413 1603c8.2-1.7 20-2.6 31.2-2.6 17.4 0 28.6 3.2 36.4 10.3 6.3 5.6 9.9 14.2 9.9 23.9 0 16.6-10.5 27.6-23.7 32.1v.6c9.7 3.4 15.5 12.3 18.5 25.4 4.1 17.6 7.1 29.7 9.7 34.5h-16.8c-2.1-3.5-4.9-14.4-8.4-30.1-3.7-17.4-10.5-23.9-25.2-24.5h-15.3v54.5H1413V1603zm16.3 57.3h16.6c17.4 0 28.4-9.5 28.4-23.9 0-16.2-11.8-23.3-28.9-23.5-7.8 0-13.4.7-16.1 1.5v45.9zM1513.5 1603c9.9-1.5 21.7-2.6 34.5-2.6 23.3 0 40 5.4 51 15.7 11.2 10.3 17.7 24.8 17.7 45.2 0 20.5-6.3 37.3-18.1 48.9-11.8 11.8-31.2 18.1-55.6 18.1-11.6 0-21.3-.6-29.5-1.5V1603zm16.2 111.3c4.1.7 10.1.9 16.4.9 34.7 0 53.6-19.4 53.6-53.4.2-29.7-16.6-48.5-51-48.5-8.4 0-14.8.7-19 1.7v99.3z"/></g><path fill="#2e2e2d" d="M1333 1215.1H667V709.7l333 40.8 333-40.8z"/><path fill="none" stroke="#231f20" stroke-width="3" stroke-miterlimit="10" d="M1333 1215.1H667V709.7l333 40.8 333-40.8z"/><g><defs><path id="SVGID_1_" d="M0 0h2000v2000H0z"/></defs><clipPath id="SVGID_2_"><use xlink:href="#SVGID_1_" overflow="visible"/></clipPath><path class="st3" d="M1322.7 563.6c0 178.2-144.5 322.7-322.7 322.7S677.3 741.9 677.3 563.6c0-178.2 144.5-322.7 322.7-322.7s322.7 144.5 322.7 322.7"/><circle cx="1000" cy="563.6" r="322.7" clip-path="url(#SVGID_2_)" fill="none" stroke="#231f20" stroke-width="7" stroke-miterlimit="10"/><path class="st3" d="M1237.5 563.6c0 131.2-106.3 237.5-237.5 237.5S762.5 694.8 762.5 563.6 868.8 326.2 1000 326.2s237.5 106.3 237.5 237.4"/><circle cx="1000" cy="563.6" r="237.5" clip-path="url(#SVGID_2_)" fill="none" stroke="#10588c" stroke-width="7" stroke-miterlimit="10"/><path class="st3" d="M992.8 294.3h12.4V833h-12.4z"/><path class="st3" d="M729.7 557.5h538.7v12.4H729.7z"/><path transform="rotate(45.001 999.048 563.63)" class="st3" d="M992.8 294.3h12.4V833h-12.4z"/><path transform="rotate(134.999 999.049 563.65)" class="st3" d="M992.8 294.3h12.4V833h-12.4z"/><path class="st6" d="M1113.2 551.2h56.5l-1.9 12.9h-20.6l-8 54.7H1124l7.9-54.7h-20.6zM1205.8 550.7c20.7 0 34.1 14.7 31.3 34.3-2.8 19.5-20.6 34.5-41.3 34.5-20.7 0-34.2-14.9-31.4-34.5 2.8-19.7 20.7-34.3 41.4-34.3m-7.8 55.5c11.3 0 21.7-9.3 23.5-21.2 1.7-11.9-6.1-21-17.4-21-11.4 0-22.2 9.1-24 21-1.7 11.9 6.6 21.2 17.9 21.2M864.4 422.6c20.8 0 44.1 6.1 58.8 15.5l-21.4 32.2c-10.5-8.1-24.7-12.5-39.7-12.5-33.3 0-52.5 21.9-56.6 56.3 11.4-14.2 29.4-22.8 51.9-22.8 38.6 0 59.1 25 53.6 62.7-5.8 41.1-37.7 66.6-80.8 66.6-51.1 0-77.2-36.4-68.6-96 9-61.8 49.2-102 102.8-102m-30.8 161.5c19.7 0 33.9-10.8 36.6-30.3 2.5-18-7.2-28.9-26.9-28.9-21.6 0-36.1 13-38.3 29.7-2.5 15.1 6.1 29.5 28.6 29.5M1035.6 423.1c54.4 0 79.7 35 70.5 98.3-9.2 63.6-44.7 98.8-99.1 98.8-55 0-79.7-35.2-70.5-98.8 9.2-63.3 44.2-98.3 99.1-98.3m-23.5 163.5c27.2 0 42.5-19.4 49.1-65.2 6.7-45.5-3.3-64.7-30.5-64.7-27.5 0-42.5 19.2-49.1 64.7-6.7 45.8 3 65.2 30.5 65.2M1146.7 463.1c-5.3-4.2-7.2-10.3-6.1-17.2 1.9-12.8 12.2-21.6 24.4-21.6 11.1 0 19.7 7.8 17.8 21.6-.8 6.7-3.9 12.2-8.3 17.2l-22.8 28h-20.8l15.8-28zm48 0c-5.3-4.2-7.2-10.3-6.1-17.2 1.9-12.8 12.2-21.6 24.4-21.6 11.1 0 19.7 7.8 17.8 21.6-.8 6.7-3.9 12.2-8.3 17.2l-22.8 28h-20.8l15.8-28zM811.7 643.7c8.7 0 17.2 3.9 22.2 9.9l-9.3 9.6c-3.4-4.7-8.9-7.8-14.5-7.8-10.3 0-19.4 8-20.9 18.4s5.3 18.5 15.6 18.5c5.4 0 11.7-2.7 16.6-7l6.7 8.7c-7.3 6.5-17.1 10.7-25.8 10.7-17.9 0-29.5-13.3-27-30.7 2.5-17.3 18.2-30.3 36.4-30.3M870.3 643.7c18.3 0 30.3 13 27.8 30.4-2.5 17.3-18.3 30.6-36.6 30.6s-30.4-13.2-27.9-30.6c2.5-17.5 18.3-30.4 36.7-30.4m-7 49.2c10 0 19.3-8.2 20.8-18.8 1.5-10.5-5.4-18.6-15.4-18.6-10.1 0-19.7 8.1-21.3 18.6-1.5 10.6 5.9 18.8 15.9 18.8M911.3 644.1h12.4l23.6 38.6 5.5-38.6h12.9l-8.7 60h-12.3l-23.5-38.5-5.6 38.5h-12.9zM986.9 644.1l9.8 45.3 23-45.3h14l-32.5 60h-14l-14.9-60zM1040.3 644.1h13.6l-8.7 60h-13.6zM1067.1 644.1h12.4l23.6 38.6 5.5-38.6h12.9l-8.6 60h-12.4l-23.5-38.5-5.6 38.5h-12.9zM1162.5 643.7c8.7 0 17.2 3.9 22.2 9.9l-9.3 9.6c-3.4-4.7-8.9-7.8-14.5-7.8-10.3 0-19.4 8-20.9 18.4-1.5 10.5 5.3 18.5 15.6 18.5 5.4 0 11.7-2.7 16.6-7l6.7 8.7c-7.3 6.5-17.1 10.7-25.8 10.7-17.9 0-29.5-13.3-27-30.7 2.5-17.3 18.2-30.3 36.4-30.3M1194.2 644.1h45.7l-1.6 11.2h-32.2l-1.8 13.1h28.9l-1.6 11.2h-29l-1.9 13.3h33.1l-1.6 11.2h-46.6z"/><path class="st7" d="M738.9 945.3H762c11 0 17.7 5.1 17.7 13.7 0 6.4-3.7 11-10.1 12.4 7.9 1.2 12.5 6.3 12.5 13.9 0 9.3-7.4 14.9-19.7 14.9h-23.5v-54.9zm22.8 23.6c7.4 0 11.7-3.2 11.7-8.9 0-5.6-4.3-8.7-11.7-8.7h-16.5v17.6h16.5zm0 25.2c8.9 0 14.1-3.5 14.1-9.8 0-5.9-5.2-9.5-14.1-9.5h-16.5v19.3h16.5zM794.9 945.3h37.2v6h-30.9v18h27.6v6h-27.6v18.8h31.9v6h-38.2zM842.9 986.3c5.1 4.9 12.1 7.8 18.2 7.8 7.9 0 12.8-3.2 12.8-8.5.1-14.4-30.8-6.7-30.8-26.4 0-8.6 7.6-14.2 18.9-14.2 6.3 0 12.8 2 17.4 5.1l-2.7 5.9c-4.9-3.3-10.7-4.6-15.1-4.6-7 0-11.7 2.7-11.7 7.3 0 14.1 30.8 6.7 30.8 26.6 0 9.2-8.1 15-19.8 15-8 0-15.8-3.4-21-8.4l3-5.6zM886.3 945.3h42v6h-17.9v48.8h-6.3v-48.8h-17.8zM958.8 945.3H981c16 0 28.2 11.8 28.2 27.4 0 15.6-12.3 27.4-28.4 27.4h-21.9v-54.8zm22.3 48.8c12.2 0 21.8-9.2 21.8-21.4 0-12.3-9.7-21.4-22-21.4h-15.7v42.8h15.9zM1020.6 945.3h37.2v6h-30.9v18h27.6v6h-27.6v18.8h31.9v6h-38.2zM1068.6 986.3c5.1 4.9 12.1 7.8 18.2 7.8 7.9 0 12.8-3.2 12.8-8.5.1-14.4-30.8-6.7-30.8-26.4 0-8.6 7.6-14.2 18.9-14.2 6.3 0 12.8 2 17.4 5.1l-2.7 5.9c-4.9-3.3-10.7-4.6-15.1-4.6-7 0-11.7 2.7-11.7 7.3 0 14.1 30.8 6.7 30.8 26.6 0 9.2-8.1 15-19.8 15-8 0-15.8-3.4-21-8.4l3-5.6zM1119.4 945.3h6.3v54.8h-6.3zM1166 945.1c7.6 0 14.9 2.9 20.2 7.5l-3.6 4.7c-4.5-4-10.5-6.3-16.6-6.3-12.5 0-22.5 9.6-22.5 21.7s10.1 21.8 22.6 21.8c4.9 0 10.2-1.7 14.4-4.6v-16.5h5.6v19.9c-5.4 4.3-13 7.2-20.4 7.2-15.9 0-28.6-12.3-28.6-27.7 0-15.5 12.7-27.7 28.9-27.7M1201.2 945.3h6.5l32.9 44v-44h6.1v54.8h-6.4l-32.9-44v44h-6.2zM750.4 1016.3l20.4 68.3 20.2-68.2 14-.1 20.4 68.3 20.3-68.3h14.6l-28.1 84h-14.5l-19.9-65.5-20.2 65.5H763l-27.9-84zM870.1 1016.3h14.2v84h-14.2zM906.4 1016.3h13.9l45 60.4v-60.4h13.9v84h-13.9l-44.8-60.2v60.2h-14.1zM1001.4 1016.3h14l45 60.4v-60.4h13.9v84h-13.9l-44.8-60.2v60.2h-14.2zM1096.5 1016.3h60v12.7h-45.8v22.7h41v12.7h-41v23.2h47.2v12.7h-61.4zM1175.2 1016.3h34.1c21.5 0 33.8 10.4 33.8 28.7 0 13.4-6.2 22.9-17.4 27.2l18.8 28.1h-16.1l-15.4-25.4c-1.2.1-2.5.1-3.8.1h-19.9v25.3h-14.2v-84zm34.1 46c13 0 20.4-5.5 20.4-16.9 0-11-7.4-16.3-20.4-16.3h-19.9v33.2h19.9z"/></g></svg>