<svg id="Слой_1" xmlns="http://www.w3.org/2000/svg" viewBox="0 0 2000 2000"><style>.st0{fill:#841740}.st1{fill:#241b1b}.st2{fill:#cd9a2b}.st3{fill:#055957}.st4{fill:#b1222d}.st5{fill:#026b96}.st8{fill:#424554}</style><path class="st0" d="M990.9 1249.8l-85.5-85.3 85.5-85.7 85.3 85.7z"/><path class="st1" d="M819.8 1078.8l85.5 85.6 85.5-85.6-85.5-85.5zM648.9 907.7l85.4 85.6 85.5-85.6-85.5-85.4z"/><path class="st2" d="M648.9 907.7l-85.6-85.4 85.6-85.6 85.4 85.6z"/><path class="st1" d="M477.8 736.7l85.4 85.5 85.7-85.5-85.7-85.3zM1161.9 1078.8l-85.6-85.5-85.5 85.5 85.5 85.6z"/><path class="st3" d="M990.9 907.7l85.3 85.6-85.3 85.5-85.5-85.5z"/><path class="st1" d="M819.8 736.7l-85.5-85.3-85.4 85.3 85.4 85.5z"/><path class="st4" d="M648.9 565.8l85.4 85.5-85.4 85.4-85.6-85.4z"/><path class="st5" d="M990.9 907.7l-85.5-85.4 85.5-85.6 85.3 85.6z"/><path fill="#6b2770" d="M819.8 736.7l-85.5-85.3 85.5-85.6 85.5 85.6z"/><path fill="#a53d80" d="M1161.9 736.7l85.5 85.5-85.5 85.5-85.6-85.5z"/><path class="st5" d="M990.9 565.8l85.3 85.5-85.3 85.4-85.5-85.4z"/><path class="st4" d="M1332.9 907.7l-85.5-85.4 85.5-85.6 85.4 85.6z"/><path class="st1" d="M1161.9 736.7l85.5 85.5 85.5-85.5-85.5-85.3z"/><path class="st3" d="M990.9 565.8l-85.5-85.5 85.5-85.5 85.3 85.5z"/><path class="st1" d="M819.8 394.8l85.5 85.5 85.5-85.5-85.5-85.6zM1503.9 736.7l-85.5-85.3-85.5 85.3 85.5 85.5z"/><path class="st2" d="M1332.9 565.8l85.4 85.5-85.4 85.4-85.5-85.4z"/><path class="st1" d="M1332.9 565.8l-85.5-85.5-85.6 85.5 85.6 85.5zM1161.9 394.8l-85.6-85.6-85.5 85.6 85.5 85.5z"/><path class="st0" d="M969.7 309.3l85.6 85.4 85.4-85.4-85.4-85.6z"/><path class="st1" d="M819.8 1078.8l-85.5 85.6-85.4-85.6 85.4-85.5zM1332.9 394.8l-85.5 85.5-85.6-85.5 85.6-85.6z"/><path class="st8" d="M326.2 1381.4c8.2-1.7 20-2.6 31.2-2.6 17.4 0 28.6 3.2 36.4 10.3 6.3 5.6 9.9 14.2 9.9 23.9 0 16.6-10.5 27.6-23.7 32.1v.6c9.7 3.4 15.5 12.3 18.5 25.4 4.1 17.6 7.1 29.7 9.7 34.5h-16.8c-2.1-3.5-4.9-14.4-8.4-30.1-3.7-17.4-10.5-23.9-25.2-24.5h-15.3v54.5h-16.2v-124.1zm16.3 57.3h16.6c17.4 0 28.4-9.5 28.4-23.9 0-16.2-11.8-23.3-28.9-23.5-7.8 0-13.4.7-16.1 1.5v45.9zM491.9 1446.6H443v45.4h54.5v13.6h-70.8v-125.9h68v13.6H443v39.8h48.9v13.5zM542.5 1393.5h-38.3v-13.8h93.2v13.8h-38.5v112h-16.4v-112zM631.7 1466l-13.1 39.6h-16.8l42.8-125.9h19.6l42.9 125.9h-17.4l-13.4-39.6h-44.6zm41.3-12.7l-12.3-36.2c-2.8-8.2-4.7-15.7-6.5-23h-.4c-1.9 7.5-3.9 15.1-6.3 22.8l-12.3 36.4H673zM741.9 1379.7v125.9h-16.2v-125.9h16.2zM770.3 1379.7h16.2v112.2h53.8v13.6h-70v-125.8zM918.3 1466l-13.1 39.6h-16.8l42.8-125.9h19.6l42.9 125.9h-17.4l-13.4-39.6h-44.6zm41.3-12.7l-12.3-36.2c-2.8-8.2-4.7-15.7-6.5-23h-.4c-1.9 7.5-3.9 15.1-6.3 22.8l-12.3 36.4h37.8zM1100.2 1501.5c-6 3-17.9 6-33.2 6-35.5 0-62.2-22.4-62.2-63.7 0-39.4 26.7-66.1 65.7-66.1 15.7 0 25.6 3.4 29.9 5.6l-3.9 13.3c-6.2-3-14.9-5.2-25.4-5.2-29.5 0-49.1 18.9-49.1 51.9 0 30.8 17.7 50.6 48.4 50.6 9.9 0 20-2.1 26.5-5.2l3.3 12.8zM1140.9 1466l-13.1 39.6H1111l42.8-125.9h19.6l42.9 125.9h-17.4l-13.4-39.6h-44.6zm41.2-12.7l-12.3-36.2c-2.8-8.2-4.7-15.7-6.5-23h-.4c-1.9 7.5-3.9 15.1-6.3 22.8l-12.3 36.4h37.8zM1234.8 1381.4c9.9-1.5 21.7-2.6 34.5-2.6 23.3 0 40 5.4 51 15.7 11.2 10.3 17.7 24.8 17.7 45.2 0 20.5-6.3 37.3-18.1 48.9-11.8 11.8-31.2 18.1-55.6 18.1-11.6 0-21.3-.6-29.5-1.5v-123.8zm16.2 111.3c4.1.7 10.1.9 16.4.9 34.7 0 53.6-19.4 53.6-53.4.2-29.7-16.6-48.5-51-48.5-8.4 0-14.8.7-19 1.7v99.3zM1424.3 1446.6h-48.9v45.4h54.5v13.6h-70.8v-125.9h68v13.6h-51.7v39.8h48.9v13.5zM1557.1 1450.3c-.9-17.6-2.1-38.7-1.9-54.3h-.6c-4.3 14.8-9.5 30.4-15.9 47.8l-22.2 61.1h-12.3l-20.4-59.9c-6-17.7-11-34-14.6-48.9h-.4c-.4 15.7-1.3 36.8-2.4 55.6l-3.4 54h-15.5l8.8-125.9h20.7l21.5 60.9c5.2 15.5 9.5 29.3 12.7 42.4h.6c3.2-12.7 7.7-26.5 13.3-42.4l22.4-60.9h20.7l7.8 125.9h-15.9l-3-55.4zM1629.1 1505.6v-53.4l-39.8-72.4h18.5l17.7 34.7c4.9 9.5 8.6 17.2 12.5 26h.4c3.5-8.2 7.8-16.4 12.7-26l18.1-34.7h18.5l-42.2 72.3v53.6h-16.4z"/><g><path class="st8" d="M146.4 1690l-13.1 39.6h-16.8l42.8-125.9h19.6l42.9 125.9h-17.4L191 1690h-44.6zm41.3-12.7l-12.3-36.2c-2.8-8.2-4.7-15.7-6.5-23h-.4c-1.9 7.5-3.9 15.1-6.3 22.8l-12.3 36.4h37.8zM328.3 1725.5c-6 3-17.9 6-33.2 6-35.5 0-62.2-22.4-62.2-63.7 0-39.4 26.7-66.1 65.7-66.1 15.7 0 25.6 3.4 29.9 5.6l-3.9 13.3c-6.2-3-14.9-5.2-25.4-5.2-29.5 0-49.1 18.9-49.1 51.9 0 30.8 17.7 50.6 48.4 50.6 9.9 0 20-2.1 26.5-5.2l3.3 12.8zM436.6 1725.5c-6 3-17.9 6-33.2 6-35.5 0-62.2-22.4-62.2-63.7 0-39.4 26.7-66.1 65.7-66.1 15.7 0 25.6 3.4 29.9 5.6l-3.9 13.3c-6.2-3-14.9-5.2-25.4-5.2-29.5 0-49.1 18.9-49.1 51.9 0 30.8 17.7 50.6 48.4 50.6 9.9 0 20-2.1 26.5-5.2l3.3 12.8zM522.1 1670.6h-48.9v45.4h54.5v13.6h-70.8v-125.9h68v13.6h-51.7v39.8h48.9v13.5zM546.6 1709.8c7.3 4.5 17.9 8.2 29.1 8.2 16.6 0 26.3-8.8 26.3-21.5 0-11.8-6.7-18.5-23.7-25-20.5-7.3-33.2-17.9-33.2-35.7 0-19.6 16.2-34.2 40.7-34.2 12.9 0 22.2 3 27.8 6.2l-4.5 13.3c-4.1-2.2-12.5-6-23.9-6-17.2 0-23.7 10.3-23.7 18.9 0 11.8 7.7 17.6 25 24.3 21.3 8.2 32.1 18.5 32.1 37 0 19.4-14.4 36.2-44.1 36.2-12.1 0-25.4-3.5-32.1-8l4.2-13.7zM638.6 1709.8c7.3 4.5 17.9 8.2 29.1 8.2 16.6 0 26.3-8.8 26.3-21.5 0-11.8-6.7-18.5-23.7-25-20.5-7.3-33.2-17.9-33.2-35.7 0-19.6 16.2-34.2 40.7-34.2 12.9 0 22.2 3 27.8 6.2l-4.5 13.3c-4.1-2.2-12.5-6-23.9-6-17.2 0-23.7 10.3-23.7 18.9 0 11.8 7.7 17.6 25 24.3 21.3 8.2 32.1 18.5 32.1 37 0 19.4-14.4 36.2-44.1 36.2-12.1 0-25.4-3.5-32.1-8l4.2-13.7zM840.5 1665.4c0 43.3-26.3 66.3-58.4 66.3-33.2 0-56.6-25.8-56.6-63.9 0-40 24.8-66.1 58.4-66.1 34.3 0 56.6 26.3 56.6 63.7zm-97.7 2c0 26.9 14.6 51 40.1 51 25.8 0 40.3-23.7 40.3-52.3 0-25-13.1-51.2-40.1-51.2-26.9.1-40.3 24.9-40.3 52.5zM861.6 1605.4c8.2-1.7 20-2.6 31.2-2.6 17.4 0 28.6 3.2 36.4 10.3 6.3 5.6 9.9 14.2 9.9 23.9 0 16.6-10.5 27.6-23.7 32.1v.6c9.7 3.4 15.5 12.3 18.5 25.4 4.1 17.6 7.1 29.7 9.7 34.5h-16.8c-2.1-3.5-4.9-14.4-8.4-30.1-3.7-17.4-10.5-23.9-25.2-24.5h-15.3v54.5h-16.2v-124.1zm16.2 57.4h16.6c17.4 0 28.4-9.5 28.4-23.9 0-16.2-11.8-23.3-28.9-23.5-7.8 0-13.4.7-16.1 1.5v45.9zM978.2 1603.8v125.9H962v-125.9h16.2zM1071.8 1670.6h-48.9v45.4h54.5v13.6h-70.8v-125.9h68v13.6h-51.7v39.8h48.9v13.5zM1096.2 1709.8c7.3 4.5 17.9 8.2 29.1 8.2 16.6 0 26.3-8.8 26.3-21.5 0-11.8-6.7-18.5-23.7-25-20.5-7.3-33.2-17.9-33.2-35.7 0-19.6 16.2-34.2 40.7-34.2 12.9 0 22.2 3 27.8 6.2l-4.5 13.3c-4.1-2.2-12.5-6-23.9-6-17.2 0-23.7 10.3-23.7 18.9 0 11.8 7.7 17.6 25 24.3 21.3 8.2 32.1 18.5 32.1 37 0 19.4-14.4 36.2-44.1 36.2-12.1 0-25.4-3.5-32.1-8l4.2-13.7zM1257.8 1729.6l-41.1-125.9h17.6l19.6 62c5.4 17 10.1 32.3 13.4 47.1h.4c3.5-14.6 8.8-30.4 14.4-46.9l21.3-62.2h17.4l-45 125.9h-18zM1399.5 1670.6h-48.9v45.4h54.5v13.6h-70.8v-125.9h68v13.6h-51.7v39.8h48.9v13.5zM1426.2 1729.6v-125.9h17.7l40.3 63.7c9.3 14.8 16.6 28 22.6 40.9l.4-.2c-1.5-16.8-1.9-32.1-1.9-51.7v-52.7h15.3v125.9h-16.4l-40-63.9c-8.8-14-17.2-28.4-23.5-42l-.6.2c.9 15.9 1.3 31 1.3 51.9v53.8h-15.2zM1549 1605.4c9.9-1.5 21.7-2.6 34.5-2.6 23.3 0 40 5.4 51 15.7 11.2 10.3 17.7 24.8 17.7 45.2 0 20.5-6.3 37.3-18.1 48.9-11.8 11.8-31.2 18.1-55.6 18.1-11.6 0-21.3-.6-29.5-1.5v-123.8zm16.3 111.3c4.1.7 10.1.9 16.4.9 34.7 0 53.6-19.4 53.6-53.4.2-29.7-16.6-48.5-51-48.5-8.4 0-14.8.7-19 1.7v99.3zM1780.9 1665.4c0 43.3-26.3 66.3-58.4 66.3-33.2 0-56.6-25.8-56.6-63.9 0-40 24.8-66.1 58.4-66.1 34.4 0 56.6 26.3 56.6 63.7zm-97.6 2c0 26.9 14.6 51 40.1 51 25.8 0 40.3-23.7 40.3-52.3 0-25-13.1-51.2-40.1-51.2-26.9.1-40.3 24.9-40.3 52.5zM1802 1605.4c8.2-1.7 20-2.6 31.2-2.6 17.4 0 28.6 3.2 36.4 10.3 6.3 5.6 9.9 14.2 9.9 23.9 0 16.6-10.5 27.6-23.7 32.1v.6c9.7 3.4 15.5 12.3 18.5 25.4 4.1 17.6 7.1 29.7 9.7 34.5h-16.8c-2.1-3.5-4.9-14.4-8.4-30.1-3.7-17.4-10.5-23.9-25.2-24.5h-15.3v54.5H1802v-124.1zm16.3 57.4h16.6c17.4 0 28.4-9.5 28.4-23.9 0-16.2-11.8-23.3-28.9-23.5-7.8 0-13.4.7-16.1 1.5v45.9z"/></g></svg>