<svg id="Слой_1" xmlns="http://www.w3.org/2000/svg" xmlns:xlink="http://www.w3.org/1999/xlink" viewBox="0 0 2000 2000"><style>.st0{fill:#424554}</style><path class="st0" d="M308.9 1380.3c7.8-1.3 18.1-2.4 31.2-2.4 16.1 0 27.8 3.7 35.3 10.5 6.9 6 11 15.1 11 26.3 0 11.4-3.4 20.4-9.7 26.9-8.6 9.1-22.6 13.8-38.5 13.8-4.9 0-9.3-.2-13.1-1.1v50.4h-16.2v-124.4zm16.2 60.7c3.5.9 8 1.3 13.4 1.3 19.6 0 31.6-9.5 31.6-26.9 0-16.6-11.8-24.6-29.7-24.6-7.1 0-12.5.6-15.3 1.3v48.9zM408.2 1380.5c8.2-1.7 20-2.6 31.2-2.6 17.4 0 28.6 3.2 36.4 10.3 6.3 5.6 9.9 14.2 9.9 23.9 0 16.6-10.5 27.6-23.7 32.1v.6c9.7 3.4 15.5 12.3 18.5 25.4 4.1 17.6 7.1 29.7 9.7 34.5h-16.8c-2.1-3.5-4.9-14.4-8.4-30.1-3.7-17.4-10.5-23.9-25.2-24.5h-15.3v54.5h-16.2v-124.1zm16.3 57.4h16.6c17.4 0 28.4-9.5 28.4-23.9 0-16.2-11.8-23.3-28.9-23.5-7.8 0-13.4.7-16.1 1.5v45.9zM616.2 1440.5c0 43.3-26.3 66.3-58.4 66.3-33.2 0-56.6-25.8-56.6-63.9 0-40 24.8-66.1 58.4-66.1 34.4 0 56.6 26.3 56.6 63.7zm-97.6 2c0 26.9 14.6 51 40.1 51 25.8 0 40.3-23.7 40.3-52.3 0-25-13.1-51.2-40.1-51.2-26.9.1-40.3 24.9-40.3 52.5zM637.3 1380.5c9.9-1.5 21.7-2.6 34.5-2.6 23.3 0 40 5.4 51 15.7 11.2 10.3 17.7 24.8 17.7 45.2 0 20.5-6.3 37.3-18.1 48.9-11.8 11.8-31.2 18.1-55.6 18.1-11.6 0-21.3-.6-29.5-1.5v-123.8zm16.3 111.3c4.1.7 10.1.9 16.4.9 34.7 0 53.6-19.4 53.6-53.4.2-29.7-16.6-48.5-51-48.5-8.4 0-14.8.7-19 1.7v99.3zM777.9 1378.9v74.5c0 28.2 12.5 40.1 29.3 40.1 18.7 0 30.6-12.3 30.6-40.1v-74.5h16.4v73.4c0 38.7-20.4 54.5-47.6 54.5-25.8 0-45.2-14.8-45.2-53.8v-74.1h16.5zM970.4 1500.6c-6 3-17.9 6-33.2 6-35.5 0-62.2-22.4-62.2-63.7 0-39.4 26.7-66.1 65.7-66.1 15.7 0 25.6 3.4 29.9 5.6l-3.9 13.3c-6.2-3-14.9-5.2-25.4-5.2-29.5 0-49.1 18.9-49.1 51.9 0 30.8 17.7 50.6 48.4 50.6 9.9 0 20-2.1 26.5-5.2l3.3 12.8zM1014.7 1392.7h-38.3v-13.8h93.2v13.8h-38.5v112h-16.4v-112zM1123.1 1380.5c9.9-1.5 21.7-2.6 34.5-2.6 23.3 0 40 5.4 51 15.7 11.2 10.3 17.7 24.8 17.7 45.2 0 20.5-6.3 37.3-18.1 48.9-11.8 11.8-31.2 18.1-55.6 18.1-11.6 0-21.3-.6-29.5-1.5v-123.8zm16.3 111.3c4.1.7 10.1.9 16.4.9 34.7 0 53.6-19.4 53.6-53.4.2-29.7-16.6-48.5-51-48.5-8.4 0-14.8.7-19 1.7v99.3zM1312.7 1445.7h-48.9v45.4h54.5v13.6h-70.8v-125.9h68v13.6h-51.7v39.8h48.9v13.5zM1337.1 1484.9c7.3 4.5 17.9 8.2 29.1 8.2 16.6 0 26.3-8.8 26.3-21.5 0-11.8-6.7-18.5-23.7-25-20.5-7.3-33.2-17.9-33.2-35.7 0-19.6 16.2-34.2 40.7-34.2 12.9 0 22.2 3 27.8 6.2l-4.5 13.3c-4.1-2.2-12.5-6-23.9-6-17.2 0-23.7 10.3-23.7 18.9 0 11.8 7.7 17.6 25 24.3 21.3 8.2 32.1 18.5 32.1 37 0 19.4-14.4 36.2-44.1 36.2-12.1 0-25.4-3.5-32.1-8l4.2-13.7zM1447.6 1378.9v125.9h-16.2v-125.9h16.2zM1571.8 1499.1c-7.3 2.6-21.7 6.9-38.7 6.9-19 0-34.7-4.9-47.1-16.6-10.8-10.5-17.6-27.3-17.6-46.9.2-37.5 26-65 68.2-65 14.6 0 26 3.2 31.4 5.8l-3.9 13.3c-6.7-3-15.1-5.4-27.8-5.4-30.6 0-50.6 19-50.6 50.6 0 31.9 19.2 50.8 48.5 50.8 10.6 0 17.9-1.5 21.7-3.4v-37.5h-25.6v-13.1h41.5v60.5zM1596.6 1504.7v-125.9h17.7l40.3 63.7c9.3 14.8 16.6 28 22.6 40.9l.4-.2c-1.5-16.8-1.9-32.1-1.9-51.7v-52.7h15.3v125.9h-16.4l-40-63.9c-8.8-14-17.2-28.4-23.5-42l-.6.2c.9 15.9 1.3 31 1.3 51.9v53.8h-15.2z"/><g><path class="st0" d="M728.8 1689.2l-13.1 39.6h-16.8l42.8-125.9h19.6l42.9 125.9h-17.4l-13.4-39.6h-44.6zm41.3-12.7l-12.3-36.2c-2.8-8.2-4.7-15.7-6.5-23h-.4c-1.9 7.5-3.9 15.1-6.3 22.8l-12.3 36.4h37.8zM843.3 1728.8l-31.9-125.9h17.2l14.9 63.7c3.7 15.7 7.1 31.4 9.3 43.5h.4c2.1-12.5 6-27.4 10.3-43.7l16.8-63.5h17l15.3 63.9c3.5 14.9 6.9 29.9 8.8 43.1h.4c2.6-13.8 6.2-27.8 10.1-43.5l16.6-63.5H965l-35.7 125.9h-17l-15.9-65.5c-3.9-16.1-6.5-28.4-8.2-41.1h-.4c-2.2 12.5-5 24.8-9.7 41.1l-17.9 65.5h-16.9zM1001 1689.2l-13.1 39.6h-16.8l42.8-125.9h19.6l42.9 125.9H1059l-13.4-39.6H1001zm41.3-12.7l-12.3-36.2c-2.8-8.2-4.7-15.7-6.5-23h-.4c-1.9 7.5-3.9 15.1-6.3 22.8l-12.3 36.4h37.8zM1095 1604.6c8.2-1.7 20-2.6 31.2-2.6 17.4 0 28.6 3.2 36.4 10.3 6.3 5.6 9.9 14.2 9.9 23.9 0 16.6-10.5 27.6-23.7 32.1v.6c9.7 3.4 15.5 12.3 18.5 25.4 4.1 17.6 7.1 29.7 9.7 34.5h-16.8c-2.1-3.5-4.9-14.4-8.4-30.1-3.7-17.4-10.5-23.9-25.2-24.5h-15.3v54.5H1095v-124.1zm16.2 57.3h16.6c17.4 0 28.4-9.5 28.4-23.9 0-16.2-11.8-23.3-28.9-23.5-7.8 0-13.4.7-16.1 1.5v45.9z"/></g><g><path class="st0" d="M1217.6 1604.6c9.9-1.5 21.7-2.6 34.5-2.6 23.3 0 40 5.4 51 15.7 11.2 10.3 17.7 24.8 17.7 45.2 0 20.5-6.3 37.3-18.1 48.9-11.8 11.8-31.2 18.1-55.6 18.1-11.6 0-21.3-.6-29.5-1.5v-123.8zm16.3 111.3c4.1.7 10.1.9 16.4.9 34.7 0 53.6-19.4 53.6-53.4.2-29.7-16.6-48.5-51-48.5-8.4 0-14.8.7-19 1.7v99.3z"/></g><path fill="#e0222a" d="M511.5 224.6h1022.7v1022.7H511.5z"/><g><defs><path id="SVGID_1_" d="M0 0h2000v2000H0z"/></defs><clipPath id="SVGID_2_"><use xlink:href="#SVGID_1_" overflow="visible"/></clipPath><path d="M1162.8 816.8h161.5V655.3h-161.5v161.5zM947.5 1032H1109V440H947.5v592zm215.3-430.6h161.5V440h-161.5v161.4zM812.9 429.2c-50.5 0-91.6 40.9-91.6 91.4 0 50.6 41 91.5 91.6 91.5 50.5 0 91.5-40.9 91.5-91.5.1-50.5-40.9-91.4-91.5-91.4M732.5 1032h161.4V655.3H732.5V1032z" clip-path="url(#SVGID_2_)" fill="#fff"/></g></svg>