<svg id="Слой_1" xmlns="http://www.w3.org/2000/svg" xmlns:xlink="http://www.w3.org/1999/xlink" viewBox="0 0 2000 2000"><style>.st0,.st1{clip-path:url(#SVGID_2_);fill:#ce202a}.st1{fill:#fff}.st2{fill:#424554}</style><defs><path id="SVGID_1_" d="M0 0h2000v2000H0z"/></defs><clipPath id="SVGID_2_"><use xlink:href="#SVGID_1_" overflow="visible"/></clipPath><path class="st0" d="M1249.6 1144.8l126-63.7c-79-156-102.8-316.3-70.9-476.6 24.5-121.1 73.5-197.5 73.9-198l-117.9-77.7c-9.6 14.9-237.5 368.4-11.1 816"/><path class="st1" d="M1249.6 1144.8l3.6 7 133.1-67.2-3.6-7c-55.8-110.2-83.8-222.4-83.8-335 0-45.5 4.5-91.1 13.6-136.5 24.3-119.6 72.6-195.1 72.6-195.3l4.4-6.5-131.1-86.3-4.4 6.5c-6.8 10.7-112.2 174.4-112.2 417.2 0 119.4 25.6 258 100.8 406.6l3.5 7 7-3.5-3.5-7 7-3.7c-74.1-146.2-99-282.1-99-399.4 0-238.3 103.7-399.2 109.8-408.7l-6.6-4.2-4.3 6.5 117.9 77.7 4.2-6.5-6.5-4.4c-.8 1.5-50.1 78.4-75 200.7-9.4 46.7-13.9 93.2-13.9 139.7 0 115.3 28.6 230 85.4 342.1l7-3.5-3.5-7.1-126 63.6 3.5 7.2 7-3.7-7 3.7z"/><path class="st0" d="M1481.9 751.6l5.7 141.1c-174.5 7-326.3 64.4-450.5 170.6-94 80-136.8 159.8-137.3 160.9l-125.1-65.4c8.2-15.7 206.1-386.9 707.2-407.2"/><path class="st1" d="M1481.9 751.6l-7.8.3 5.6 141 7.9-.3-.2-7.9c-176.2 7.1-329.8 65.2-455.4 172.5-95.1 81.2-138.1 161.4-139.2 163.4l7 3.5 3.6-7-125-65.3-3.7 6.9 7 3.6c7.7-14.7 203.6-383 700.4-402.9l-.2-7.8-7.8.3 7.8-.3-.3-7.7c-505.3 20.4-705.2 394.6-713.8 411.3l-3.6 6.9 139.1 72.5 3.6-7s42.5-79.4 135.4-158.5c122.8-105 272.6-161.8 445.6-168.7l7.8-.5-6.3-156.4-7.8.2.3 7.9z"/><path class="st0" d="M1221.2 1155.3l-118.8 76.3c-94.2-147.5-220.5-249.4-374.8-302.9-116.7-40.8-207.4-37.2-208.2-37.2l-6.9-140.8c17.9-.9 438.1-17.6 708.7 404.6"/><path class="st1" d="M1221.2 1155.3l-4.3-6.6-118.7 76.4 4.2 6.6 6.6-4.2c-95-148.7-222.7-252-378.8-306-100.7-35.1-182.1-37.7-204.7-37.7h-6v7.8l7.8-.3-6.8-140.9-7.8.4.2 7.9c1.6-.1 6.6-.4 14.3-.4 77.8.2 443.9 21 687.3 401.3l6.7-4.3-4.3-6.6 4.3 6.6 6.6-4.1C979.9 764.3 607.3 742.5 527.1 742.6c-8.1 0-13.2.2-15 .3l-7.8.5 7.6 156h13.6c21.4 0 101.3 2.4 199.6 36.8 152.7 52.9 277.3 153.5 370.8 299.7l4.3 6.6 131.8-84.8-4.1-6.5-6.7 4.1z"/><path class="st0" d="M745.8 1144.8l-125.9-63.7c79.1-156 102.9-316.3 70.8-476.6-24.4-121.1-73.3-197.5-73.8-198l117.8-77.7c9.7 14.9 237.8 368.4 11.1 816"/><path class="st1" d="M745.8 1144.8l3.5-7.1-125.9-63.7-3.6 7.1 7.1 3.5c56.8-112 85.4-226.8 85.4-342 0-46.4-4.7-93-14.1-139.8-12.3-61.2-30.8-111-46.3-145.7-7.7-17.4-14.8-31-19.9-40.3l-6-10.6-2.9-4.5-6.2 4.9 4.2 6.5L739 335.4l-4.4-6.5-6.5 4.3c6 9.3 109.9 170.3 109.9 408.4 0 117.3-25 253.2-99.3 399.6l7.1 3.6 3.5-7.1-3.5 7.1 7 3.5C828.1 999.7 853.7 861 853.7 741.5c0-242.8-105.5-406.3-112.4-417.1l-4.4-6.5-131.5 86.7 5.3 6.6 5-3.9-5.3 3.5.3.4 5-3.9-5.3 3.5c1.4 2.3 49 77.5 72.5 195.2 9.2 45.5 13.9 91.1 13.9 136.6-.1 112.7-27.9 224.8-83.8 335l-3.6 7 139.9 70.7 3.6-7-7.1-3.5z"/><path class="st0" d="M524.3 724.6l-5.8-140.9c174.9-7 326.4-64.4 450.7-170.8 94.1-80.1 136.8-159.9 137.1-160.8l125.3 65.2c-8.3 16-206.1 387.2-707.3 407.3"/><path class="st1" d="M524.3 724.6l7.9-.2-5.7-141-8 .4.3 7.8c176.3-7.1 329.9-65.2 455.5-172.5 47.6-40.5 82.1-80.9 104.9-111.5 11.3-15.1 19.7-28 25.4-37l6.3-10.5 1.7-3 .9-2-7.3-2.9-3.6 7 125.2 65.1 3.6-6.8-6.9-3.7c-7.9 15-203.5 383.2-700.6 403.3l.4 7.5 7.9-.2-7.9.2.2 7.9c505.7-20.5 705.2-394.8 713.9-411.5l3.6-7.1-140-72.7-3.2 8.2 6.3 2.4-6-3-.3.6 6.3 2.4-6-3c-1.1 2.3-43.7 80.3-135.1 158.2-123.1 105.2-272.6 162-446 168.9l-7.8.3 6.4 156.5 7.7-.2v-7.9z"/><path class="st0" d="M772.4 313l118.9-76.2c94.1 147.5 220.3 249.3 374.6 303 116.7 40.6 207.4 37.3 208.3 37.3l6.8 140.5c-17.8 1.2-438 17.9-708.6-404.6"/><path class="st1" d="M772.4 313l4.1 6.7 119-76.2-4.2-6.7-6.5 4.2c94.9 148.6 222.6 251.9 378.6 306.2 101.1 35.2 182.6 37.7 205 37.7h5.8v-7.8l-7.8.3 6.7 140.6 8-.4-.5-7.8c-1.5.1-6.5.3-14.6.3-78.3 0-443.7-21.4-687-401.3l-6.6 4.2 4.1 6.7-4.1-6.7-6.6 4.4C1013.2 703.7 1385.4 726 1466 725.9c8.3 0 13.4-.2 15.3-.3l7.8-.4-7.4-155.9h-13.2c-21.1 0-101.1-2.3-199.9-36.8-152.6-53.1-277.1-153.7-370.7-299.7l-4.2-6.6-132 84.5 4.3 6.7 6.4-4.4z"/><path class="st0" d="M1291.3 724.4c1.1-39.7 5.6-80 13.5-119.9 24.5-121.2 73.5-197.5 73.8-198l-117.9-77.8c-6.4 9.6-104.2 161.4-110.5 389"/><path class="st1" d="M1299.2 724.6c1.1-39.2 5.6-79.1 13.3-118.7 24.3-119.5 72.7-195 72.7-195.2l4.4-6.6-131-86.2-4.4 6.5c-6.8 10.3-105.2 163.3-111.7 393l15.5.5c6.5-225.4 103.4-376 109.3-384.9l-6.5-4.3-4.3 6.6 117.9 77.7 4.3-6.5-6.5-4.4c-.8 1.5-50.1 78.3-75.1 200.7-7.9 40.5-12.4 81.2-13.6 121.3l15.7.5z"/><g><path class="st2" d="M714.7 1391.1h-38.3v-13.8h93.2v13.8h-38.5v112h-16.4v-112zM803.9 1463.5l-13.1 39.6H774l42.8-125.9h19.6l42.9 125.9H862l-13.4-39.6h-44.7zm41.3-12.7l-12.3-36.2c-2.8-8.2-4.7-15.7-6.5-23h-.4c-1.9 7.5-3.9 15.1-6.3 22.8l-12.3 36.4h37.8zM914.1 1377.2v125.9h-16.2v-125.9h16.2zM963 1503.1l-31.9-125.9h17.2l14.9 63.7c3.7 15.7 7.1 31.4 9.3 43.5h.4c2.1-12.5 6-27.4 10.3-43.7l16.8-63.5h17l15.3 63.9c3.5 14.9 6.9 29.9 8.8 43.1h.4c2.6-13.8 6.2-27.8 10.1-43.5l16.6-63.5h16.6l-35.7 125.9h-17l-15.9-65.5c-3.9-16.1-6.5-28.4-8.2-41.1h-.4c-2.2 12.5-5 24.8-9.7 41.1l-17.9 65.5h-17zM1120.8 1463.5l-13.1 39.6h-16.8l42.8-125.9h19.6l42.9 125.9h-17.4l-13.4-39.6h-44.6zm41.2-12.7l-12.3-36.2c-2.8-8.2-4.7-15.7-6.5-23h-.4c-1.9 7.5-3.9 15.1-6.3 22.8l-12.3 36.4h37.8zM1214.7 1503.1v-125.9h17.7l40.3 63.7c9.3 14.8 16.6 28 22.6 40.9l.4-.2c-1.5-16.8-1.9-32.1-1.9-51.7v-52.7h15.3v125.9h-16.4l-40-63.9c-8.8-14-17.2-28.4-23.5-42l-.6.2c.9 15.9 1.3 31 1.3 51.9v53.8h-15.2z"/></g><g><path class="st2" d="M584.5 1668.1h-48.9v45.4h54.5v13.6h-70.8v-125.9h68v13.6h-51.7v39.8h48.9v13.5zM680.1 1727.1l-16.1-27.8c-6.5-10.6-10.6-17.6-14.6-24.8h-.4c-3.5 7.3-7.1 14-13.6 25l-15.1 27.6h-18.7l38.5-63.7-37-62.2H622l16.6 29.5c4.7 8.2 8.2 14.6 11.6 21.3h.6c3.5-7.5 6.7-13.3 11.4-21.3l17.2-29.5H698l-38.3 61.2 39.2 64.6h-18.8zM805.8 1723c-6 3-17.9 6-33.2 6-35.5 0-62.2-22.4-62.2-63.7 0-39.4 26.7-66.1 65.7-66.1 15.7 0 25.6 3.4 29.9 5.6l-3.9 13.3c-6.2-3-14.9-5.2-25.4-5.2-29.5 0-49.1 18.9-49.1 51.9 0 30.8 17.7 50.6 48.4 50.6 9.9 0 20-2.1 26.5-5.2l3.3 12.8zM891.3 1668.1h-48.9v45.4h54.5v13.6h-70.8v-125.9h68v13.6h-51.7v39.8h48.9v13.5zM918 1601.3h16.2v112.2H988v13.6h-70v-125.8zM1006.1 1601.3h16.2v112.2h53.8v13.6h-70v-125.8zM1159.4 1668.1h-48.9v45.4h54.5v13.6h-70.8v-125.9h68v13.6h-51.7v39.8h48.9v13.5zM1186.1 1727.1v-125.9h17.7l40.3 63.7c9.3 14.8 16.6 28 22.6 40.9l.4-.2c-1.5-16.8-1.9-32.1-1.9-51.7v-52.7h15.3v125.9h-16.4l-40-63.9c-8.8-14-17.2-28.4-23.5-42l-.6.2c.9 15.9 1.3 31 1.3 51.9v53.8h-15.2zM1396.9 1723c-6 3-17.9 6-33.2 6-35.5 0-62.2-22.4-62.2-63.7 0-39.4 26.7-66.1 65.7-66.1 15.7 0 25.6 3.4 29.9 5.6l-3.9 13.3c-6.2-3-14.9-5.2-25.4-5.2-29.5 0-49.1 18.9-49.1 51.9 0 30.8 17.7 50.6 48.4 50.6 9.9 0 20-2.1 26.5-5.2l3.3 12.8zM1482.4 1668.1h-48.9v45.4h54.5v13.6h-70.8v-125.9h68v13.6h-51.7v39.8h48.9v13.5z"/></g></svg>