<svg xmlns="http://www.w3.org/2000/svg" width="19" height="22"><path d="M19.087 20.91a1.04 1.04 0 01-.233.767.907.907 0 01-.689.323H1.019a.91.91 0 01-.689-.328 1.024 1.024 0 01-.233-.762l1.35-13.54c.098-.986.88-1.748 1.82-1.748h1.69v-.446C4.957 2.322 6.96 0 9.543 0h.098c2.582 0 4.585 2.322 4.585 5.176v.446h1.69c.94 0 1.723.762 1.821 1.747zM6.81 5.622h5.561v-.446c0-1.775-1.17-3.22-2.731-3.22h-.098c-1.56 0-2.732 1.445-2.732 3.22zm10.324 14.422L15.896 7.578H3.287L2.048 20.044z"/><path d="M19.087 20.91a1.04 1.04 0 01-.233.767.907.907 0 01-.689.323H1.019a.91.91 0 01-.689-.328 1.024 1.024 0 01-.233-.762l1.35-13.54c.098-.986.88-1.748 1.82-1.748h1.69v-.446C4.957 2.322 6.96 0 9.543 0h.098c2.582 0 4.585 2.322 4.585 5.176v.446h1.69c.94 0 1.723.762 1.821 1.747zM6.81 5.622h5.561v-.446c0-1.775-1.17-3.22-2.731-3.22h-.098c-1.56 0-2.732 1.445-2.732 3.22zm10.324 14.422L15.896 7.578H3.287L2.048 20.044z"/></svg>