<svg width="15" height="16" fill="none" xmlns="http://www.w3.org/2000/svg"><path fill-rule="evenodd" clip-rule="evenodd" d="M9.178 5.152c.065.223.253.398.464.398h4.508c.473 0 .67.648.286.956l-3.644 2.917a.567.567 0 00-.178.6l1.393 4.748c.146.499-.37.912-.752.604L7.606 12.43a.45.45 0 00-.574-.001l-3.648 2.94c-.383.308-.898-.107-.752-.606l1.393-4.747a.575.575 0 00-.177-.606L.203 6.506c-.384-.308-.187-.956.286-.956h4.508c.211 0 .399-.175.464-.398L6.855.38c.147-.499.783-.51.929-.012l1.394 4.784z" fill="#22386A"/></svg>